M48
METRIC,LZ,000.000
;FILE_FORMAT=3:3
;TYPE=PLATED
;Layer: PTH_Through
;EasyEDA v6.5.54, 2026-05-21 17:53:48
;7a1b08eaf02848799e0af87208c0ae22,6572002597894c82b7a6c50a1b3f076c,10
;Gerber Generator version 0.2
;Holesize 1 = 0.301 mm
T01C0.301
;Holesize 2 = 0.306 mm
T02C0.306
;Holesize 3 = 0.400 mm
T03C0.400
;Holesize 4 = 0.600 mm
T04C0.600
;Holesize 5 = 0.701 mm
T05C0.701
;Holesize 6 = 0.900 mm
T06C0.900
;Holesize 7 = 0.901 mm
T07C0.901
;Holesize 8 = 1.000 mm
T08C1.000
;Holesize 9 = 1.021 mm
T09C1.021
;Holesize 10 = 1.101 mm
T10C1.101
;Holesize 11 = 1.200 mm
T11C1.200
;Holesize 12 = 1.301 mm
T12C1.301
%
G05
G90
T01
X026604Y037097
T02
X038087Y058698
X039710Y059756
X046446Y053544
X039026Y057874
X048826Y052989
X038990Y034502
X043307Y062230
X045212Y062865
X050165Y062865
T03
X044612Y058511
T04
X043305Y070387G85X043305Y069587
X051945Y066357G85X051945Y065257
X043305Y066357G85X043305Y065257
X051945Y070387G85X051945Y069587
T05
X079872Y069723
X078370Y069723
X072887Y069977
X071385Y069977
X065775Y070104
X064273Y070104
X045582Y041402
X044080Y041402
X027294Y037973
X025792Y037973
X045582Y047625
X044080Y047625
X052186Y047498
X050684Y047498
T06
X058039Y062611
X058039Y054991
X033655Y035306
X041275Y035306
X026924Y071374
X034544Y071374
X027051Y066548
X034671Y066548
X058039Y047244
X065659Y047244
X011938Y030861
X019558Y030861
X022606Y031115
X030226Y031115
X058039Y042799
X065659Y042799
X058039Y037592
X065659Y037592
X058166Y032639
X065786Y032639
X058166Y027940
X065786Y027940
X044704Y035179
X052324Y035179
X044704Y031369
X052324Y031369
X033528Y031242
X041148Y031242
T07
X081280Y060716
X081280Y055616
X057912Y071501
X057912Y068961
X052070Y040132
X052070Y042672
T08
X073279Y062389
X073279Y053689
X080645Y039465
X080645Y048165
X080772Y025368
X080772Y034068
T09
X042037Y025527
X039497Y025527
X036957Y025527
X034417Y025527
X053594Y025527
X051054Y025527
X048514Y025527
X045974Y025527
X067428Y061849
X065278Y061849
X063128Y061849
T10
X012370Y038699
X012370Y034199
X018872Y038699
X018872Y034199
X013767Y069560
X013767Y065060
X020269Y069560
X020269Y065060
T11
X018161Y025527
X015621Y025527
X013081Y025527
X027686Y025400
X025146Y025400
X022606Y025400
X089789Y068712
X092329Y068702
X087249Y068712
T12
X092202Y055789
X092202Y060797
X092075Y041565
X092075Y046573
X091948Y026960
X091948Y031968
X072771Y046228
X072771Y041148
X072771Y043688
X072771Y031369
X072771Y026289
X072771Y028829
M30
