G04 Layer: BottomSolderMaskLayer*
G04 EasyEDA v6.5.54, 2026-05-21 17:53:48*
G04 7a1b08eaf02848799e0af87208c0ae22,6572002597894c82b7a6c50a1b3f076c,10*
G04 Gerber Generator version 0.2*
G04 Scale: 100 percent, Rotated: No, Reflected: No *
G04 Dimensions in millimeters *
G04 leading zeros omitted , absolute positions ,4 integer and 5 decimal *
%FSLAX45Y45*%
%MOMM*%

%AMMACRO1*4,1,8,-0.8311,-0.8608,-0.8608,-0.831,-0.8608,0.8311,-0.8311,0.8608,0.831,0.8608,0.8608,0.8311,0.8608,-0.831,0.831,-0.8608,-0.8311,-0.8608,0*%
%AMMACRO2*4,1,8,-0.8085,-0.9508,-0.8382,-0.921,-0.8382,0.9211,-0.8085,0.9508,0.8084,0.9508,0.8382,0.9211,0.8382,-0.921,0.8084,-0.9508,-0.8085,-0.9508,0*%
%AMMACRO3*4,1,8,-1.2707,-1.0516,-1.3005,-1.0218,-1.3005,1.0218,-1.2707,1.0516,1.2707,1.0516,1.3005,1.0218,1.3005,-1.0218,1.2707,-1.0516,-1.2707,-1.0516,0*%
%AMMACRO4*4,1,8,-0.7831,-0.8128,-0.8128,-0.783,-0.8128,0.7831,-0.7831,0.8128,0.783,0.8128,0.8128,0.7831,0.8128,-0.783,0.783,-0.8128,-0.7831,-0.8128,0*%
%AMMACRO5*4,1,8,-0.9211,-1.3508,-0.9508,-1.321,-0.9508,1.3211,-0.9211,1.3508,0.921,1.3508,0.9508,1.3211,0.9508,-1.321,0.921,-1.3508,-0.9211,-1.3508,0*%
%ADD10C,1.2032*%
%ADD11C,1.9016*%
%ADD12C,1.6240*%
%ADD13C,1.7216*%
%ADD14MACRO1*%
%ADD15C,0.0178*%
%ADD16MACRO2*%
%ADD17C,1.7526*%
%ADD18C,2.1016*%
%ADD19MACRO3*%
%ADD20O,2.601595X2.101596*%
%ADD21C,1.9812*%
%ADD22MACRO4*%
%ADD23C,1.6256*%
%ADD24O,1.901596X2.701595*%
%ADD25MACRO5*%
%ADD26O,1.101598X1.901596*%
%ADD27O,1.101598X2.201596*%

%LPD*%
D10*
G01*
X7987156Y6972300D03*
G01*
X7837043Y6972300D03*
G01*
X7288656Y6997700D03*
G01*
X7138543Y6997700D03*
G01*
X6577456Y7010400D03*
G01*
X6427343Y7010400D03*
G01*
X4558156Y4140200D03*
G01*
X4408043Y4140200D03*
G01*
X2729356Y3797300D03*
G01*
X2579243Y3797300D03*
G01*
X4558156Y4762500D03*
G01*
X4408043Y4762500D03*
G01*
X5218556Y4749800D03*
G01*
X5068443Y4749800D03*
D11*
G01*
X7327900Y6238900D03*
G01*
X7327900Y5368899D03*
G01*
X8064500Y3946499D03*
G01*
X8064500Y4816500D03*
G01*
X8077200Y2536799D03*
G01*
X8077200Y3406800D03*
D12*
G01*
X8128000Y6071590D03*
G01*
X8128000Y5561609D03*
D13*
G01*
X4203700Y2552700D03*
G01*
X3949700Y2552700D03*
G01*
X3695700Y2552700D03*
D14*
G01*
X3441700Y2552700D03*
D13*
G01*
X5359400Y2552700D03*
G01*
X5105400Y2552700D03*
G01*
X4851400Y2552700D03*
D14*
G01*
X4597400Y2552700D03*
D11*
G01*
X1816100Y2552700D03*
G01*
X1562100Y2552700D03*
D16*
G01*
X1308100Y2552700D03*
D11*
G01*
X2768600Y2540000D03*
G01*
X2514600Y2540000D03*
D16*
G01*
X2260600Y2540000D03*
D11*
G01*
X1237005Y3869944D03*
G01*
X1237005Y3419855D03*
G01*
X1887245Y3869944D03*
G01*
X1887245Y3419855D03*
G01*
X1376705Y6956044D03*
G01*
X1376705Y6505955D03*
G01*
X2026920Y6956044D03*
G01*
X2026920Y6505955D03*
D17*
G01*
X5791200Y7150100D03*
G01*
X5791200Y6896100D03*
G01*
X5207000Y4013200D03*
G01*
X5207000Y4267200D03*
D18*
G01*
X9220200Y5578855D03*
G01*
X9220200Y6079744D03*
G01*
X9207500Y4156455D03*
G01*
X9207500Y4657344D03*
G01*
X9194800Y2695955D03*
G01*
X9194800Y3196844D03*
D19*
G01*
X7277100Y4622800D03*
D20*
G01*
X7277100Y4114800D03*
G01*
X7277100Y4368800D03*
D19*
G01*
X7277100Y3136900D03*
D20*
G01*
X7277100Y2628900D03*
G01*
X7277100Y2882900D03*
D21*
G01*
X5803900Y6261100D03*
G01*
X5803900Y5499100D03*
G01*
X3365500Y3530600D03*
G01*
X4127500Y3530600D03*
G01*
X2692400Y7137400D03*
G01*
X3454400Y7137400D03*
G01*
X2705100Y6654800D03*
G01*
X3467100Y6654800D03*
G01*
X5803900Y4724400D03*
G01*
X6565900Y4724400D03*
G01*
X1193800Y3086100D03*
G01*
X1955800Y3086100D03*
G01*
X2260600Y3111500D03*
G01*
X3022600Y3111500D03*
G01*
X5803900Y4279900D03*
G01*
X6565900Y4279900D03*
G01*
X5803900Y3759200D03*
G01*
X6565900Y3759200D03*
G01*
X5816600Y3263900D03*
G01*
X6578600Y3263900D03*
G01*
X5816600Y2794000D03*
G01*
X6578600Y2794000D03*
G01*
X4470400Y3517900D03*
G01*
X5232400Y3517900D03*
G01*
X4470400Y3136900D03*
G01*
X5232400Y3136900D03*
G01*
X3352800Y3124200D03*
G01*
X4114800Y3124200D03*
D22*
G01*
X6742798Y6184900D03*
D23*
G01*
X6527800Y6184900D03*
G01*
X6312788Y6184900D03*
D24*
G01*
X8978900Y6871182D03*
G01*
X9232925Y6870192D03*
D25*
G01*
X8724887Y6871195D03*
D26*
G01*
X4330496Y6998665D03*
D27*
G01*
X5194503Y6580682D03*
G01*
X4330496Y6580682D03*
D26*
G01*
X5194503Y6998715D03*
M02*
