G04 Layer: TopLayer*
G04 EasyEDA v6.5.54, 2026-05-21 17:53:48*
G04 7a1b08eaf02848799e0af87208c0ae22,6572002597894c82b7a6c50a1b3f076c,10*
G04 Gerber Generator version 0.2*
G04 Scale: 100 percent, Rotated: No, Reflected: No *
G04 Dimensions in millimeters *
G04 leading zeros omitted , absolute positions ,4 integer and 5 decimal *
%FSLAX45Y45*%
%MOMM*%

%AMMACRO1*21,1,$1,$2,0,0,$3*%
%ADD10C,1.2000*%
%ADD11C,0.2100*%
%ADD12C,0.2540*%
%ADD13C,0.6000*%
%ADD14C,0.2500*%
%ADD15C,1.5000*%
%ADD16C,0.0101*%
%ADD17R,0.9000X2.0000*%
%ADD18R,2.0000X0.9000*%
%ADD19MACRO1,2X0.9X0.0000*%
%ADD20MACRO1,2X0.9X90.0000*%
%ADD21R,4.1000X4.1000*%
%ADD22O,0.559994X1.745005*%
%ADD23R,0.3000X1.4500*%
%ADD24R,0.5500X1.4500*%
%ADD25C,1.0000*%
%ADD26C,1.8000*%
%ADD27C,1.5240*%
%ADD28C,1.6200*%
%ADD29R,1.6200X1.6200*%
%ADD30R,1.5748X1.8000*%
%ADD31C,1.6510*%
%ADD32C,2.0000*%
%ADD33MACRO1,2.0015X2.4994X-90.0000*%
%ADD34O,2.499995X1.999996*%
%ADD35C,1.8796*%
%ADD36R,1.5240X1.5240*%
%ADD37O,1.799996X2.599995*%
%ADD38R,1.8000X2.6000*%
%ADD39O,0.999998X1.799996*%
%ADD40O,0.999998X2.099996*%
%ADD41C,0.6100*%
%ADD42C,0.8000*%

%LPD*%
G36*
X889000Y6273800D02*
G01*
X889000Y4203700D01*
X1714500Y4203700D01*
X1727200Y4216400D01*
X1727200Y6273800D01*
G37*
D10*
X9232900Y6870192D02*
G01*
X9232900Y6829552D01*
X8893047Y6489700D01*
X8251697Y6489700D01*
X7836915Y6904228D01*
X5803900Y6261100D02*
G01*
X6184900Y6642100D01*
X7574788Y6642100D01*
X7836915Y6904228D01*
D11*
X4838700Y5465848D02*
G01*
X4838700Y5565447D01*
X4645360Y5758792D01*
X4645360Y6230851D01*
X4687493Y6272984D01*
X4687493Y6488684D01*
X4787491Y6488684D02*
G01*
X4787491Y6575679D01*
X4769332Y6593842D01*
X4707943Y6593842D01*
X4687493Y6573393D01*
X4687493Y6488684D01*
X4965700Y5465851D02*
G01*
X4965700Y5749442D01*
X4775200Y5939942D01*
X4775200Y6375882D01*
X4775200Y6375882D02*
G01*
X4756274Y6375882D01*
X4737506Y6394650D01*
X4737506Y6488684D01*
X4837506Y6488684D02*
G01*
X4837506Y6404617D01*
X4808773Y6375882D01*
X4775200Y6375882D01*
D12*
X4408043Y4762500D02*
G01*
X4492040Y4678502D01*
X4597120Y4678502D01*
X4711700Y4793081D01*
X4711700Y5465851D01*
X6742811Y6184900D02*
G01*
X7273899Y6184900D01*
X7327900Y6238900D01*
X8128000Y5561609D02*
G01*
X7935290Y5368899D01*
X7327900Y5368899D01*
X9220200Y5578855D02*
G01*
X8620734Y5578855D01*
X8128000Y6071590D01*
X3125393Y4357801D02*
G01*
X3125393Y4225061D01*
X5816600Y2794000D02*
G01*
X4624755Y2794000D01*
X3962298Y3456457D01*
X3962298Y3476421D01*
X3925188Y3513531D01*
X3836924Y3513531D01*
X3125393Y4225061D01*
D13*
X1982393Y4357801D02*
G01*
X1982393Y4207763D01*
X2260600Y2540000D02*
G01*
X2131822Y2540000D01*
X2131822Y2540000D02*
G01*
X1992071Y2400249D01*
X1460550Y2400249D01*
X1308100Y2552700D01*
X2131822Y2540000D02*
G01*
X2286863Y2384958D01*
X4035958Y2384958D01*
X4203700Y2552700D01*
X5359400Y2552700D02*
G01*
X5221706Y2415006D01*
X4341393Y2415006D01*
X4203700Y2552700D01*
X4408043Y4140200D02*
G01*
X4769993Y4502150D01*
X6343650Y4502150D01*
X6565900Y4724400D01*
D10*
X7837043Y6904354D02*
G01*
X7837043Y6972300D01*
X9194800Y2695955D02*
G01*
X8236356Y2695955D01*
X8077200Y2536799D01*
X9207500Y4156455D02*
G01*
X8274456Y4156455D01*
X8064500Y3946499D01*
D14*
X2490393Y4357801D02*
G01*
X2490393Y3886149D01*
X2579243Y3797300D01*
D15*
X9207500Y4657344D02*
G01*
X8223656Y4657344D01*
X8064500Y4816500D01*
X9194800Y3196844D02*
G01*
X8287156Y3196844D01*
X8077200Y3406800D01*
D12*
X3506393Y6157798D02*
G01*
X3506393Y6323406D01*
X2692400Y7137400D01*
X6565900Y4279900D02*
G01*
X6908800Y4622800D01*
X7277100Y4622800D01*
X6578600Y3263900D02*
G01*
X6992391Y3263900D01*
X7119391Y3136900D01*
X7277100Y3136900D02*
G01*
X7119391Y3136900D01*
X2109393Y6290538D02*
G01*
X2473655Y6654800D01*
X2705100Y6654800D01*
X2109393Y6157798D02*
G01*
X2109393Y6290538D01*
X4330496Y6580682D02*
G01*
X4422495Y6488684D01*
X4442508Y6488684D01*
X5194503Y6580682D02*
G01*
X5102504Y6488684D01*
X5082517Y6488684D01*
X4330501Y6998667D02*
G01*
X5194454Y6998667D01*
X5194503Y6998715D01*
X4330700Y5465851D02*
G01*
X4330700Y4989956D01*
X4558156Y4762500D01*
X8724900Y6871208D02*
G01*
X8088249Y6871208D01*
X7987156Y6972300D01*
X3352800Y3124200D02*
G01*
X3035300Y3124200D01*
X3022600Y3111500D01*
X7277100Y4114800D02*
G01*
X6159500Y4114800D01*
X5803900Y3759200D01*
X5194503Y6998715D02*
G01*
X5688584Y6998715D01*
X5791200Y6896100D01*
X2768600Y2540000D02*
G01*
X3315258Y2540000D01*
X3327958Y2552700D01*
X3441700Y2552700D02*
G01*
X3327958Y2552700D01*
X4483658Y2552700D02*
G01*
X4368622Y2667736D01*
X3642029Y2667736D01*
X3555441Y2581147D01*
X3555441Y2552700D01*
X4597400Y2552700D02*
G01*
X4483658Y2552700D01*
X3441700Y2552700D02*
G01*
X3555441Y2552700D01*
X4470400Y3136900D02*
G01*
X4597400Y3263900D01*
X5816600Y3263900D01*
X5207000Y4267200D02*
G01*
X5080000Y4140200D01*
X4558156Y4140200D01*
X6577456Y7010400D02*
G01*
X6482003Y6914946D01*
X5810046Y6914946D01*
X5791200Y6896100D01*
X7288656Y6997700D02*
G01*
X7189927Y6898970D01*
X6688886Y6898970D01*
X6577456Y7010400D01*
X2109393Y4357801D02*
G01*
X2109393Y4490542D01*
X1237005Y3869944D02*
G01*
X1474749Y3869944D01*
X1777390Y4172585D01*
X1777390Y4172585D02*
G01*
X2547518Y3402456D01*
X3851224Y3402456D01*
X3898950Y3450183D01*
X3656406Y5829300D02*
G01*
X3698316Y5787389D01*
X3902583Y5787389D01*
D14*
X2617393Y4357801D02*
G01*
X2617393Y4220286D01*
X2617393Y4220286D02*
G01*
X2816910Y4020769D01*
X2816910Y3747262D01*
X2779395Y3709746D01*
X2660370Y3709746D01*
D12*
X4644567Y5354370D02*
G01*
X4584700Y5414238D01*
X4584700Y5465851D01*
X2363393Y6157798D02*
G01*
X2363393Y6025057D01*
X2236393Y6157798D02*
G01*
X2236393Y6025057D01*
X3808729Y5869812D02*
G01*
X3771391Y5907151D01*
X2354300Y5907151D01*
X2236393Y6025057D01*
X4457700Y5465851D02*
G01*
X4457700Y5498007D01*
X4085894Y5869812D01*
X3808729Y5869812D01*
X4522495Y6488684D02*
G01*
X4521200Y6487388D01*
X4521200Y6286500D01*
X4330700Y6223000D02*
G01*
X4330700Y6040351D01*
X2026914Y6956046D02*
G01*
X2335174Y7264300D01*
X4064861Y7264300D01*
X4330496Y6998665D01*
D10*
X4330700Y6040348D02*
G01*
X4330700Y5941237D01*
X4420844Y5851093D01*
X4461179Y5851093D01*
D12*
X4887493Y6488684D02*
G01*
X4887493Y6301206D01*
X5026657Y6162042D01*
X5026657Y5370065D01*
X4955542Y5298950D01*
X4882641Y5298950D01*
X1777492Y4172457D02*
G01*
X1777492Y4473194D01*
X1876297Y4572000D01*
X2027936Y4572000D01*
X2109470Y4490465D01*
X2997200Y4356100D02*
G01*
X2997276Y4488764D01*
X2998470Y4490465D02*
G01*
X3067304Y4559300D01*
X3856990Y4559300D01*
X4361434Y4054602D01*
X5058918Y4054602D01*
X5144515Y4140200D01*
X5664200Y4140200D01*
X5803900Y4279900D01*
X2489202Y6159497D02*
G01*
X2489202Y6026757D01*
X3971036Y5975604D02*
G01*
X3971036Y5956300D01*
X2432050Y5956300D01*
X2363470Y6025134D01*
X2490470Y6025134D02*
G01*
X2508504Y6007100D01*
X3810761Y6007100D01*
X4102861Y6299200D01*
X4368800Y6299200D01*
X4521200Y6146800D01*
X4521200Y5929376D01*
X4584700Y5865876D01*
X4584700Y5755386D01*
X4775200Y5564886D01*
X4775200Y5316728D01*
X5367527Y4724400D01*
X5803900Y4724400D01*
X5002504Y6488684D02*
G01*
X5016500Y6474688D01*
X5016500Y6286500D01*
X1816100Y2552700D02*
G01*
X2044700Y2781300D01*
X2527300Y2781300D01*
X2768600Y2540000D01*
X4587493Y6488684D02*
G01*
X4587493Y6589776D01*
X4718304Y6720839D01*
X5228081Y6720839D01*
X5644388Y6304279D01*
X5644388Y6124702D01*
X6704075Y5065013D01*
X6704075Y4677663D01*
X6280911Y4254500D01*
X6114034Y4254500D01*
X5676900Y3817365D01*
X5676900Y3696715D01*
X6045200Y3328415D01*
X6045200Y2768600D01*
X5943091Y2666492D01*
X4572508Y2666492D01*
X4114800Y3124200D01*
D10*
X6312788Y6184900D02*
G01*
X5969000Y6184900D01*
X5803900Y6261100D01*
D13*
X6427215Y7010400D02*
G01*
X6579615Y7162800D01*
X6973315Y7162800D01*
X7138415Y6997700D01*
X8978900Y6871208D02*
G01*
X8978900Y6931913D01*
X8709913Y7200900D01*
X7341615Y7200900D01*
X7138415Y6997700D01*
X1982393Y4207763D02*
G01*
X2659557Y3530600D01*
X3365500Y3530600D01*
D17*
G01*
X1855393Y4357801D03*
G01*
X1982393Y4357801D03*
G01*
X2109393Y4357801D03*
G01*
X2236393Y4357801D03*
G01*
X2363393Y4357801D03*
G01*
X2490393Y4357801D03*
G01*
X2617393Y4357801D03*
G01*
X2744393Y4357801D03*
G01*
X2871393Y4357801D03*
G01*
X2998393Y4357801D03*
G01*
X3125393Y4357801D03*
G01*
X3252393Y4357801D03*
G01*
X3379393Y4357801D03*
G01*
X3506393Y4357801D03*
D18*
G01*
X3656406Y4686300D03*
G01*
X3656406Y4813300D03*
G01*
X3656406Y4940300D03*
G01*
X3656406Y5067300D03*
G01*
X3656406Y5194300D03*
D19*
G01*
X3656406Y5321300D03*
G01*
X3656406Y5448300D03*
G01*
X3656406Y5575300D03*
G01*
X3656406Y5702300D03*
G01*
X3656406Y5829300D03*
D20*
G01*
X3506393Y6157805D03*
G01*
X3379393Y6157805D03*
G01*
X3252393Y6157805D03*
G01*
X3125393Y6157805D03*
G01*
X2998393Y6157805D03*
G01*
X2871393Y6157805D03*
G01*
X2744393Y6157805D03*
G01*
X2617393Y6157805D03*
G01*
X2490393Y6157805D03*
G01*
X2363393Y6157805D03*
G01*
X2236393Y6157805D03*
G01*
X2109393Y6157805D03*
G01*
X1982393Y6157805D03*
G01*
X1855393Y6157805D03*
D21*
G01*
X2589402Y5189804D03*
D22*
G01*
X4330700Y5465851D03*
G01*
X4457700Y5465851D03*
G01*
X4584700Y5465851D03*
G01*
X4711700Y5465851D03*
G01*
X4838700Y5465851D03*
G01*
X4965700Y5465851D03*
G01*
X5092700Y5465851D03*
G01*
X5219700Y5465851D03*
G01*
X4330700Y6040348D03*
G01*
X4457700Y6040348D03*
G01*
X4584700Y6040348D03*
G01*
X4711700Y6040348D03*
G01*
X4838700Y6040348D03*
G01*
X4965700Y6040348D03*
G01*
X5092700Y6040348D03*
G01*
X5219700Y6040348D03*
D23*
G01*
X4937506Y6488684D03*
G01*
X4887493Y6488684D03*
G01*
X4837506Y6488684D03*
G01*
X4787493Y6488684D03*
G01*
X4737506Y6488684D03*
G01*
X4687493Y6488684D03*
G01*
X4637506Y6488684D03*
G01*
X4587493Y6488684D03*
D24*
G01*
X4522495Y6488684D03*
G01*
X4442510Y6488684D03*
G01*
X5002504Y6488684D03*
G01*
X5082514Y6488684D03*
D25*
G01*
X7987156Y6972300D03*
G01*
X7837043Y6972300D03*
G01*
X7288656Y6997700D03*
G01*
X7138543Y6997700D03*
G01*
X6577456Y7010400D03*
G01*
X6427343Y7010400D03*
G01*
X4558156Y4140200D03*
G01*
X4408043Y4140200D03*
G01*
X2729356Y3797300D03*
G01*
X2579243Y3797300D03*
G01*
X4558156Y4762500D03*
G01*
X4408043Y4762500D03*
G01*
X5218556Y4749800D03*
G01*
X5068443Y4749800D03*
D26*
G01*
X7327900Y6238900D03*
G01*
X7327900Y5368899D03*
G01*
X8064500Y3946499D03*
G01*
X8064500Y4816500D03*
G01*
X8077200Y2536799D03*
G01*
X8077200Y3406800D03*
D27*
G01*
X8128000Y6071590D03*
G01*
X8128000Y5561609D03*
D28*
G01*
X4203700Y2552700D03*
G01*
X3949700Y2552700D03*
G01*
X3695700Y2552700D03*
D29*
G01*
X3441700Y2552700D03*
D28*
G01*
X5359400Y2552700D03*
G01*
X5105400Y2552700D03*
G01*
X4851400Y2552700D03*
D29*
G01*
X4597400Y2552700D03*
D26*
G01*
X1816100Y2552700D03*
G01*
X1562100Y2552700D03*
D30*
G01*
X1308100Y2552700D03*
D26*
G01*
X2768600Y2540000D03*
G01*
X2514600Y2540000D03*
D30*
G01*
X2260600Y2540000D03*
D26*
G01*
X1237005Y3869944D03*
G01*
X1237005Y3419855D03*
G01*
X1887245Y3869944D03*
G01*
X1887245Y3419855D03*
G01*
X1376705Y6956044D03*
G01*
X1376705Y6505955D03*
G01*
X2026920Y6956044D03*
G01*
X2026920Y6505955D03*
D31*
G01*
X5791200Y7150100D03*
G01*
X5791200Y6896100D03*
G01*
X5207000Y4013200D03*
G01*
X5207000Y4267200D03*
D32*
G01*
X9220200Y5578855D03*
G01*
X9220200Y6079744D03*
G01*
X9207500Y4156455D03*
G01*
X9207500Y4657344D03*
G01*
X9194800Y2695955D03*
G01*
X9194800Y3196844D03*
D33*
G01*
X7277100Y4622800D03*
D34*
G01*
X7277100Y4114800D03*
G01*
X7277100Y4368800D03*
D33*
G01*
X7277100Y3136900D03*
D34*
G01*
X7277100Y2628900D03*
G01*
X7277100Y2882900D03*
D35*
G01*
X5803900Y6261100D03*
G01*
X5803900Y5499100D03*
G01*
X3365500Y3530600D03*
G01*
X4127500Y3530600D03*
G01*
X2692400Y7137400D03*
G01*
X3454400Y7137400D03*
G01*
X2705100Y6654800D03*
G01*
X3467100Y6654800D03*
G01*
X5803900Y4724400D03*
G01*
X6565900Y4724400D03*
G01*
X1193800Y3086100D03*
G01*
X1955800Y3086100D03*
G01*
X2260600Y3111500D03*
G01*
X3022600Y3111500D03*
G01*
X5803900Y4279900D03*
G01*
X6565900Y4279900D03*
G01*
X5803900Y3759200D03*
G01*
X6565900Y3759200D03*
G01*
X5816600Y3263900D03*
G01*
X6578600Y3263900D03*
G01*
X5816600Y2794000D03*
G01*
X6578600Y2794000D03*
G01*
X4470400Y3517900D03*
G01*
X5232400Y3517900D03*
G01*
X4470400Y3136900D03*
G01*
X5232400Y3136900D03*
G01*
X3352800Y3124200D03*
G01*
X4114800Y3124200D03*
D36*
G01*
X6742811Y6184900D03*
D27*
G01*
X6527800Y6184900D03*
G01*
X6312788Y6184900D03*
D37*
G01*
X8978900Y6871182D03*
G01*
X9232925Y6870192D03*
D38*
G01*
X8724900Y6871208D03*
D39*
G01*
X4330496Y6998665D03*
D40*
G01*
X5194503Y6580682D03*
G01*
X4330496Y6580682D03*
D39*
G01*
X5194503Y6998715D03*
D41*
G01*
X3808729Y5869812D03*
G01*
X3971010Y5975578D03*
G01*
X4644567Y5354370D03*
D13*
G01*
X2660370Y3709746D03*
D41*
G01*
X3902583Y5787389D03*
D42*
G01*
X4461179Y5851093D03*
D41*
G01*
X4882641Y5298947D03*
G01*
X3898950Y3450183D03*
G01*
X4330700Y6223000D03*
G01*
X4521200Y6286500D03*
G01*
X5016500Y6286500D03*
M02*
