G04 Layer: BottomLayer*
G04 EasyEDA v6.5.54, 2026-05-21 17:53:48*
G04 7a1b08eaf02848799e0af87208c0ae22,6572002597894c82b7a6c50a1b3f076c,10*
G04 Gerber Generator version 0.2*
G04 Scale: 100 percent, Rotated: No, Reflected: No *
G04 Dimensions in millimeters *
G04 leading zeros omitted , absolute positions ,4 integer and 5 decimal *
%FSLAX45Y45*%
%MOMM*%

%AMMACRO1*21,1,$1,$2,0,0,$3*%
%ADD10C,1.2000*%
%ADD11C,0.6000*%
%ADD12C,0.2500*%
%ADD13C,1.5000*%
%ADD14C,0.2540*%
%ADD15C,0.0133*%
%ADD16C,1.0000*%
%ADD17C,1.8000*%
%ADD18C,1.5240*%
%ADD19C,1.6200*%
%ADD20R,1.6200X1.6200*%
%ADD21R,1.5748X1.8000*%
%ADD22C,1.6510*%
%ADD23C,2.0000*%
%ADD24MACRO1,2.0015X2.4994X-90.0000*%
%ADD25O,2.499995X1.999996*%
%ADD26C,1.8796*%
%ADD27R,1.5240X1.5240*%
%ADD28O,1.799996X2.599995*%
%ADD29R,1.8000X2.6000*%
%ADD30O,0.999998X1.799996*%
%ADD31O,0.999998X2.099996*%
%ADD32C,0.6100*%
%ADD33C,0.8000*%

%LPD*%
G36*
X4591761Y3552850D02*
G01*
X4587798Y3553866D01*
X4584598Y3556355D01*
X4582160Y3561181D01*
X4576013Y3574592D01*
X4568240Y3587140D01*
X4558995Y3598672D01*
X4548378Y3608933D01*
X4536592Y3617823D01*
X4523841Y3625189D01*
X4510227Y3630929D01*
X4496054Y3634994D01*
X4481474Y3637279D01*
X4466691Y3637686D01*
X4452010Y3636365D01*
X4437583Y3633215D01*
X4423003Y3628034D01*
X4419295Y3627475D01*
X4415586Y3628288D01*
X4412437Y3630422D01*
X3944162Y4098747D01*
X3941978Y4102049D01*
X3941216Y4105910D01*
X3941216Y4503470D01*
X3941978Y4507331D01*
X3944162Y4510633D01*
X3947464Y4512868D01*
X3951325Y4513630D01*
X3955237Y4512868D01*
X3958539Y4510633D01*
X4329633Y4139539D01*
X4331766Y4136390D01*
X4334865Y4120083D01*
X4338828Y4109161D01*
X4344365Y4098950D01*
X4351375Y4089704D01*
X4359757Y4081678D01*
X4369257Y4074972D01*
X4379671Y4069842D01*
X4390745Y4066336D01*
X4402226Y4064558D01*
X4413859Y4064558D01*
X4425340Y4066336D01*
X4436414Y4069842D01*
X4446828Y4074972D01*
X4456328Y4081678D01*
X4464710Y4089704D01*
X4471720Y4098950D01*
X4474159Y4103420D01*
X4477004Y4106722D01*
X4480966Y4108500D01*
X4485284Y4108500D01*
X4489196Y4106722D01*
X4492040Y4103420D01*
X4494479Y4098950D01*
X4501540Y4089704D01*
X4509871Y4081678D01*
X4519371Y4074972D01*
X4526788Y4071315D01*
X4526788Y4108856D01*
X4491329Y4108856D01*
X4487011Y4109821D01*
X4483506Y4112564D01*
X4481525Y4116527D01*
X4481372Y4120946D01*
X4483404Y4131513D01*
X4483862Y4143095D01*
X4482541Y4154627D01*
X4481423Y4158691D01*
X4481118Y4162399D01*
X4482134Y4165955D01*
X4484420Y4168901D01*
X4487570Y4170883D01*
X4491228Y4171543D01*
X4526788Y4171543D01*
X4526788Y4209135D01*
X4524502Y4208221D01*
X4514494Y4202277D01*
X4505553Y4194860D01*
X4497832Y4186174D01*
X4491634Y4176674D01*
X4488840Y4173778D01*
X4485132Y4172204D01*
X4481118Y4172204D01*
X4477410Y4173778D01*
X4474565Y4176674D01*
X4468418Y4186174D01*
X4460646Y4194860D01*
X4451705Y4202277D01*
X4441698Y4208221D01*
X4430928Y4212539D01*
X4419650Y4215180D01*
X4415231Y4215536D01*
X4411776Y4216400D01*
X4408830Y4218482D01*
X4042105Y4585208D01*
X4039920Y4588510D01*
X4039158Y4592370D01*
X4039158Y5820460D01*
X4038600Y5828182D01*
X4039158Y5832246D01*
X4041241Y5835751D01*
X4044543Y5838139D01*
X4048506Y5839053D01*
X4052519Y5838291D01*
X4055922Y5836056D01*
X4564583Y5327446D01*
X4570780Y5322316D01*
X4577486Y5318760D01*
X4584700Y5316575D01*
X4593285Y5315712D01*
X4596841Y5314696D01*
X4599787Y5312410D01*
X4601768Y5309260D01*
X4602429Y5305602D01*
X4602429Y4841290D01*
X4601667Y4837430D01*
X4599482Y4834128D01*
X4596231Y4831892D01*
X4592370Y4831130D01*
X4589526Y4831638D01*
X4589526Y4793843D01*
X4592269Y4793843D01*
X4596180Y4793081D01*
X4599432Y4790897D01*
X4601667Y4787595D01*
X4602429Y4783683D01*
X4602429Y4741316D01*
X4601667Y4737404D01*
X4599432Y4734102D01*
X4596180Y4731918D01*
X4592269Y4731156D01*
X4589526Y4731156D01*
X4589526Y4693208D01*
X4591710Y4693767D01*
X4595774Y4693158D01*
X4599279Y4691024D01*
X4601616Y4687620D01*
X4602429Y4683607D01*
X4602429Y4218990D01*
X4601667Y4215130D01*
X4599482Y4211828D01*
X4596231Y4209592D01*
X4592370Y4208830D01*
X4589526Y4209338D01*
X4589526Y4171543D01*
X4592269Y4171543D01*
X4596180Y4170781D01*
X4599432Y4168597D01*
X4601667Y4165295D01*
X4602429Y4161383D01*
X4602429Y4119016D01*
X4601667Y4115104D01*
X4599432Y4111802D01*
X4596180Y4109618D01*
X4592269Y4108856D01*
X4589526Y4108856D01*
X4589526Y4070908D01*
X4591710Y4071467D01*
X4595774Y4070858D01*
X4599279Y4068724D01*
X4601616Y4065320D01*
X4602429Y4061307D01*
X4602429Y3562959D01*
X4601616Y3558997D01*
X4599279Y3555644D01*
X4595825Y3553460D01*
G37*

%LPC*%
G36*
X4402226Y4686858D02*
G01*
X4413859Y4686858D01*
X4425340Y4688636D01*
X4436414Y4692142D01*
X4446828Y4697272D01*
X4456328Y4703978D01*
X4464710Y4712004D01*
X4471720Y4721250D01*
X4474159Y4725720D01*
X4477004Y4729022D01*
X4480966Y4730800D01*
X4485284Y4730800D01*
X4489196Y4729022D01*
X4492040Y4725720D01*
X4494479Y4721250D01*
X4501540Y4712004D01*
X4509871Y4703978D01*
X4519371Y4697272D01*
X4526788Y4693615D01*
X4526788Y4731156D01*
X4491329Y4731156D01*
X4487011Y4732121D01*
X4483506Y4734864D01*
X4481525Y4738827D01*
X4481372Y4743246D01*
X4483404Y4753813D01*
X4483862Y4765395D01*
X4482541Y4776927D01*
X4481423Y4780991D01*
X4481118Y4784699D01*
X4482134Y4788255D01*
X4484420Y4791202D01*
X4487570Y4793183D01*
X4491228Y4793843D01*
X4526788Y4793843D01*
X4526788Y4831435D01*
X4524502Y4830521D01*
X4514494Y4824577D01*
X4505553Y4817160D01*
X4497832Y4808474D01*
X4491634Y4798974D01*
X4488840Y4796078D01*
X4485132Y4794504D01*
X4481118Y4794504D01*
X4477410Y4796078D01*
X4474565Y4798974D01*
X4468418Y4808474D01*
X4460646Y4817160D01*
X4451705Y4824577D01*
X4441698Y4830521D01*
X4430928Y4834839D01*
X4419650Y4837480D01*
X4408068Y4838395D01*
X4396486Y4837480D01*
X4385157Y4834839D01*
X4374388Y4830521D01*
X4364380Y4824577D01*
X4355439Y4817160D01*
X4347718Y4808474D01*
X4341368Y4798771D01*
X4336643Y4788154D01*
X4333544Y4776927D01*
X4332224Y4765395D01*
X4332681Y4753813D01*
X4334865Y4742383D01*
X4338828Y4731461D01*
X4344365Y4721250D01*
X4351375Y4712004D01*
X4359757Y4703978D01*
X4369257Y4697272D01*
X4379671Y4692142D01*
X4390745Y4688636D01*
G37*

%LPD*%
G36*
X1788160Y2298700D02*
G01*
X1784248Y2299462D01*
X1780997Y2301697D01*
X1778762Y2304948D01*
X1778000Y2308860D01*
X1778000Y3342233D01*
X1778812Y3346246D01*
X1781200Y3349599D01*
X1784705Y3351784D01*
X1788820Y3352342D01*
X1792782Y3351276D01*
X1795983Y3348685D01*
X1802739Y3340506D01*
X1813356Y3330549D01*
X1825142Y3322015D01*
X1837893Y3315004D01*
X1851406Y3309620D01*
X1865528Y3306013D01*
X1879955Y3304184D01*
X1894484Y3304184D01*
X1908911Y3306013D01*
X1923034Y3309620D01*
X1936546Y3315004D01*
X1949297Y3322015D01*
X1961083Y3330549D01*
X1971700Y3340506D01*
X1980996Y3351733D01*
X1988769Y3364026D01*
X1994966Y3377184D01*
X1999488Y3391052D01*
X2002180Y3405327D01*
X2003094Y3419856D01*
X2002180Y3434384D01*
X1999488Y3448659D01*
X1994966Y3462528D01*
X1988769Y3475685D01*
X1980996Y3487978D01*
X1971700Y3499205D01*
X1961083Y3509162D01*
X1949297Y3517696D01*
X1936546Y3524707D01*
X1923034Y3530092D01*
X1908911Y3533698D01*
X1894484Y3535527D01*
X1879955Y3535527D01*
X1865528Y3533698D01*
X1851406Y3530092D01*
X1837893Y3524707D01*
X1825142Y3517696D01*
X1813356Y3509162D01*
X1802739Y3499205D01*
X1795983Y3491026D01*
X1792782Y3488436D01*
X1788820Y3487369D01*
X1784705Y3487928D01*
X1781200Y3490112D01*
X1778812Y3493465D01*
X1778000Y3497478D01*
X1778000Y3792321D01*
X1778812Y3796334D01*
X1781200Y3799687D01*
X1784705Y3801872D01*
X1788820Y3802430D01*
X1792782Y3801364D01*
X1795983Y3798773D01*
X1802739Y3790594D01*
X1813356Y3780637D01*
X1825142Y3772103D01*
X1837893Y3765092D01*
X1851406Y3759708D01*
X1865528Y3756101D01*
X1879955Y3754272D01*
X1894484Y3754272D01*
X1908911Y3756101D01*
X1923034Y3759708D01*
X1936546Y3765092D01*
X1949297Y3772103D01*
X1961083Y3780637D01*
X1971700Y3790594D01*
X1980996Y3801821D01*
X1988769Y3814114D01*
X1994966Y3827272D01*
X1999488Y3841140D01*
X2002180Y3855415D01*
X2003094Y3869944D01*
X2002180Y3884472D01*
X1999488Y3898747D01*
X1994966Y3912615D01*
X1988769Y3925773D01*
X1980996Y3938066D01*
X1971700Y3949293D01*
X1961083Y3959250D01*
X1949297Y3967784D01*
X1936546Y3974795D01*
X1923034Y3980179D01*
X1908911Y3983786D01*
X1894484Y3985615D01*
X1879955Y3985615D01*
X1865528Y3983786D01*
X1851406Y3980179D01*
X1837893Y3974795D01*
X1825142Y3967784D01*
X1813356Y3959250D01*
X1802739Y3949293D01*
X1795983Y3941114D01*
X1792782Y3938524D01*
X1788820Y3937457D01*
X1784705Y3938015D01*
X1781200Y3940200D01*
X1778812Y3943553D01*
X1778000Y3947566D01*
X1778000Y7291831D01*
X1778762Y7295743D01*
X1780997Y7298994D01*
X1784248Y7301230D01*
X1788160Y7301992D01*
X3273145Y7301992D01*
X3277057Y7301230D01*
X3280359Y7298994D01*
X3282543Y7295743D01*
X3283305Y7291831D01*
X3282543Y7287920D01*
X3280359Y7284669D01*
X2762859Y6767169D01*
X2759557Y6764934D01*
X2755646Y6764172D01*
X2751734Y6764985D01*
X2744927Y6767830D01*
X2730754Y6771894D01*
X2716174Y6774180D01*
X2701391Y6774586D01*
X2686710Y6773265D01*
X2672283Y6770116D01*
X2658364Y6765188D01*
X2645156Y6758584D01*
X2632862Y6750456D01*
X2621635Y6740855D01*
X2611729Y6729933D01*
X2603195Y6717893D01*
X2596184Y6704888D01*
X2590850Y6691122D01*
X2587294Y6676847D01*
X2585466Y6662166D01*
X2585466Y6647434D01*
X2587294Y6632752D01*
X2590850Y6618478D01*
X2596184Y6604711D01*
X2603195Y6591706D01*
X2611729Y6579666D01*
X2621635Y6568744D01*
X2632862Y6559143D01*
X2645156Y6551015D01*
X2658364Y6544411D01*
X2672283Y6539484D01*
X2686710Y6536334D01*
X2701391Y6534962D01*
X2716174Y6535420D01*
X2730754Y6537706D01*
X2744927Y6541770D01*
X2758541Y6547510D01*
X2771292Y6554876D01*
X2783078Y6563766D01*
X2793695Y6574028D01*
X2802940Y6585559D01*
X2810713Y6598107D01*
X2816860Y6611518D01*
X2821330Y6625539D01*
X2824073Y6640068D01*
X2824988Y6654800D01*
X2824073Y6669531D01*
X2821330Y6684060D01*
X2816860Y6698081D01*
X2815437Y6701180D01*
X2814523Y6705142D01*
X2815234Y6709206D01*
X2817520Y6712610D01*
X3327704Y7222794D01*
X3331006Y7225030D01*
X3334918Y7225792D01*
X3350768Y7225792D01*
X3355035Y7224826D01*
X3358540Y7222134D01*
X3360572Y7218222D01*
X3360724Y7213803D01*
X3359048Y7209739D01*
X3352495Y7200493D01*
X3345484Y7187488D01*
X3340150Y7173722D01*
X3336594Y7159447D01*
X3334765Y7144766D01*
X3334765Y7130034D01*
X3336594Y7115352D01*
X3340150Y7101078D01*
X3345484Y7087311D01*
X3352495Y7074306D01*
X3361029Y7062266D01*
X3370935Y7051344D01*
X3382162Y7041743D01*
X3393948Y7033920D01*
X3396386Y7031685D01*
X3397961Y7028738D01*
X3398469Y7025487D01*
X3398469Y6758228D01*
X3397554Y6754012D01*
X3394964Y6750507D01*
X3383635Y6740855D01*
X3373729Y6729933D01*
X3365195Y6717893D01*
X3358184Y6704888D01*
X3352850Y6691122D01*
X3349294Y6676847D01*
X3347465Y6662166D01*
X3347465Y6647434D01*
X3349294Y6632752D01*
X3352850Y6618478D01*
X3358184Y6604711D01*
X3365195Y6591706D01*
X3373729Y6579666D01*
X3383635Y6568744D01*
X3394862Y6559143D01*
X3407156Y6551015D01*
X3420364Y6544411D01*
X3434283Y6539484D01*
X3448710Y6536334D01*
X3463391Y6534962D01*
X3478174Y6535420D01*
X3492754Y6537706D01*
X3496665Y6538823D01*
X3500221Y6539179D01*
X3503676Y6538264D01*
X3506622Y6536232D01*
X3746296Y6296507D01*
X3748532Y6293205D01*
X3749294Y6289344D01*
X3749294Y6019952D01*
X3748532Y6016091D01*
X3746296Y6012789D01*
X3326129Y5592572D01*
X3322675Y5588812D01*
X3319729Y5584952D01*
X3317087Y5580837D01*
X3314852Y5576519D01*
X3312972Y5571998D01*
X3311499Y5567375D01*
X3310432Y5562600D01*
X3309823Y5557774D01*
X3309569Y5552694D01*
X3309569Y3642512D01*
X3309061Y3639261D01*
X3307486Y3636314D01*
X3305048Y3634079D01*
X3293262Y3626256D01*
X3282035Y3616655D01*
X3272129Y3605733D01*
X3263595Y3593693D01*
X3256584Y3580688D01*
X3251250Y3566922D01*
X3247694Y3552647D01*
X3245866Y3537965D01*
X3245866Y3523234D01*
X3247694Y3508552D01*
X3249625Y3500780D01*
X3249879Y3497326D01*
X3248964Y3493973D01*
X3246983Y3491128D01*
X3168040Y3412185D01*
X3164586Y3408426D01*
X3161639Y3404565D01*
X3158998Y3400450D01*
X3156762Y3396132D01*
X3154883Y3391611D01*
X3153410Y3386988D01*
X3152343Y3382213D01*
X3151733Y3377387D01*
X3151479Y3372307D01*
X3151479Y3163976D01*
X3150768Y3160115D01*
X3151479Y3154680D01*
X3151479Y3068320D01*
X3150717Y3064408D01*
X3151479Y3059023D01*
X3151479Y2788310D01*
X3150717Y2784449D01*
X3148533Y2781147D01*
X2859024Y2491638D01*
X2855722Y2489403D01*
X2851810Y2488641D01*
X2819958Y2488641D01*
X2819958Y2459990D01*
X2819196Y2456078D01*
X2816961Y2452776D01*
X2813659Y2450592D01*
X2809798Y2449830D01*
X2727401Y2449830D01*
X2723540Y2450592D01*
X2720238Y2452776D01*
X2718003Y2456078D01*
X2717241Y2459990D01*
X2717241Y2488641D01*
X2664917Y2488641D01*
X2667050Y2484170D01*
X2674823Y2471877D01*
X2679344Y2466441D01*
X2681173Y2463088D01*
X2681681Y2459329D01*
X2680716Y2455621D01*
X2678480Y2452573D01*
X2675280Y2450541D01*
X2671521Y2449830D01*
X2611678Y2449830D01*
X2607919Y2450541D01*
X2604719Y2452573D01*
X2602484Y2455621D01*
X2601518Y2459329D01*
X2602026Y2463088D01*
X2603855Y2466441D01*
X2608376Y2471877D01*
X2616149Y2484170D01*
X2622346Y2497328D01*
X2626868Y2511196D01*
X2629560Y2525471D01*
X2630474Y2540000D01*
X2629560Y2554528D01*
X2626868Y2568803D01*
X2622346Y2582672D01*
X2616149Y2595829D01*
X2608376Y2608122D01*
X2599080Y2619349D01*
X2588463Y2629306D01*
X2576677Y2637840D01*
X2563926Y2644851D01*
X2559405Y2646629D01*
X2556052Y2648813D01*
X2553817Y2652166D01*
X2553004Y2656078D01*
X2553004Y2856992D01*
X2552242Y2864967D01*
X2550058Y2872181D01*
X2546502Y2878836D01*
X2541422Y2885033D01*
X2372918Y3053486D01*
X2370683Y3056940D01*
X2369921Y3060954D01*
X2370886Y3064916D01*
X2372360Y3068218D01*
X2376830Y3082239D01*
X2379573Y3096768D01*
X2380488Y3111500D01*
X2379573Y3126232D01*
X2376830Y3140760D01*
X2372360Y3154781D01*
X2370886Y3158083D01*
X2369921Y3162046D01*
X2370683Y3166059D01*
X2372918Y3169513D01*
X2687167Y3483762D01*
X2692247Y3489960D01*
X2695803Y3496614D01*
X2697988Y3503777D01*
X2698800Y3511753D01*
X2698800Y3665220D01*
X2699562Y3669131D01*
X2701747Y3672433D01*
X2703169Y3673856D01*
X2708757Y3681831D01*
X2712872Y3690620D01*
X2715412Y3700068D01*
X2716225Y3709720D01*
X2715412Y3719423D01*
X2712872Y3728872D01*
X2708757Y3737660D01*
X2703169Y3745636D01*
X2700985Y3747820D01*
X2698800Y3751122D01*
X2697988Y3755034D01*
X2697988Y3765956D01*
X2662529Y3765956D01*
X2658211Y3766921D01*
X2654706Y3769664D01*
X2652725Y3773627D01*
X2652572Y3778046D01*
X2654604Y3788613D01*
X2655062Y3800195D01*
X2653741Y3811727D01*
X2652623Y3815791D01*
X2652318Y3819499D01*
X2653334Y3823055D01*
X2655620Y3826001D01*
X2658770Y3827983D01*
X2662428Y3828643D01*
X2697988Y3828643D01*
X2697988Y3866235D01*
X2695702Y3865321D01*
X2685694Y3859377D01*
X2676753Y3851960D01*
X2669032Y3843274D01*
X2662834Y3833774D01*
X2660040Y3830878D01*
X2656332Y3829304D01*
X2652318Y3829304D01*
X2648610Y3830878D01*
X2645765Y3833774D01*
X2639618Y3843274D01*
X2631846Y3851960D01*
X2622905Y3859377D01*
X2612898Y3865321D01*
X2602128Y3869639D01*
X2590850Y3872280D01*
X2579268Y3873195D01*
X2567686Y3872280D01*
X2556357Y3869639D01*
X2545588Y3865321D01*
X2535580Y3859377D01*
X2526639Y3851960D01*
X2518918Y3843274D01*
X2512568Y3833571D01*
X2507843Y3822954D01*
X2504744Y3811727D01*
X2503424Y3800195D01*
X2503881Y3788613D01*
X2506065Y3777183D01*
X2510028Y3766261D01*
X2515565Y3756050D01*
X2522575Y3746804D01*
X2530957Y3738778D01*
X2534716Y3736136D01*
X2537663Y3732885D01*
X2538984Y3728720D01*
X2538374Y3724351D01*
X2536037Y3720642D01*
X2013762Y3198368D01*
X2010460Y3196183D01*
X2006498Y3195421D01*
X2002637Y3196183D01*
X1995627Y3199130D01*
X1981454Y3203194D01*
X1966874Y3205480D01*
X1952091Y3205886D01*
X1937410Y3204565D01*
X1922983Y3201416D01*
X1909064Y3196488D01*
X1895856Y3189884D01*
X1883562Y3181756D01*
X1872335Y3172155D01*
X1862429Y3161233D01*
X1853895Y3149193D01*
X1846884Y3136188D01*
X1841550Y3122422D01*
X1837994Y3108147D01*
X1836166Y3093466D01*
X1836166Y3078734D01*
X1837994Y3064052D01*
X1841550Y3049778D01*
X1846884Y3036011D01*
X1853895Y3023006D01*
X1862429Y3010966D01*
X1872335Y3000044D01*
X1883562Y2990443D01*
X1895856Y2982315D01*
X1909064Y2975711D01*
X1922983Y2970784D01*
X1937410Y2967634D01*
X1952091Y2966262D01*
X1966874Y2966720D01*
X1981454Y2969006D01*
X1995627Y2973070D01*
X2009241Y2978810D01*
X2021992Y2986176D01*
X2033778Y2995066D01*
X2044395Y3005328D01*
X2053640Y3016859D01*
X2061413Y3029407D01*
X2067560Y3042818D01*
X2072030Y3056839D01*
X2074773Y3071368D01*
X2075688Y3086100D01*
X2074773Y3100832D01*
X2072030Y3115360D01*
X2067560Y3129381D01*
X2066086Y3132683D01*
X2065121Y3136646D01*
X2065883Y3140659D01*
X2068118Y3144113D01*
X2600909Y3676853D01*
X2604617Y3679240D01*
X2608935Y3679799D01*
X2613152Y3678478D01*
X2616403Y3675532D01*
X2618994Y3672433D01*
X2621178Y3669131D01*
X2621940Y3665220D01*
X2621940Y3531412D01*
X2621178Y3527501D01*
X2618994Y3524199D01*
X2318562Y3223768D01*
X2315260Y3221583D01*
X2311298Y3220821D01*
X2307437Y3221583D01*
X2300427Y3224530D01*
X2286254Y3228594D01*
X2271674Y3230880D01*
X2256891Y3231286D01*
X2242210Y3229965D01*
X2227783Y3226816D01*
X2213864Y3221888D01*
X2200656Y3215284D01*
X2188362Y3207156D01*
X2177135Y3197555D01*
X2167229Y3186633D01*
X2158695Y3174593D01*
X2151684Y3161588D01*
X2146350Y3147822D01*
X2142794Y3133547D01*
X2140966Y3118866D01*
X2140966Y3104134D01*
X2142794Y3089452D01*
X2146350Y3075178D01*
X2151684Y3061411D01*
X2158695Y3048406D01*
X2167229Y3036366D01*
X2177135Y3025444D01*
X2188362Y3015843D01*
X2200656Y3007715D01*
X2213864Y3001111D01*
X2227783Y2996184D01*
X2242210Y2993034D01*
X2256891Y2991662D01*
X2271674Y2992120D01*
X2286254Y2994406D01*
X2300427Y2998470D01*
X2307437Y3001416D01*
X2311298Y3002178D01*
X2315260Y3001416D01*
X2318562Y2999232D01*
X2473198Y2844546D01*
X2475433Y2841294D01*
X2476195Y2837383D01*
X2476195Y2656078D01*
X2475382Y2652166D01*
X2473147Y2648813D01*
X2469794Y2646629D01*
X2465273Y2644851D01*
X2452522Y2637840D01*
X2440736Y2629306D01*
X2430119Y2619349D01*
X2420823Y2608122D01*
X2413050Y2595829D01*
X2406853Y2582672D01*
X2402332Y2568803D01*
X2399639Y2554528D01*
X2398725Y2540000D01*
X2399639Y2525471D01*
X2402332Y2511196D01*
X2405583Y2501239D01*
X2405989Y2496769D01*
X2404414Y2492603D01*
X2401214Y2489454D01*
X2396998Y2488031D01*
X2392527Y2488539D01*
X2388717Y2490927D01*
X2368245Y2511450D01*
X2366010Y2514752D01*
X2365248Y2518613D01*
X2365248Y2629408D01*
X2364536Y2635758D01*
X2362606Y2641193D01*
X2359558Y2646121D01*
X2355443Y2650185D01*
X2350566Y2653284D01*
X2345080Y2655214D01*
X2338781Y2655925D01*
X2182418Y2655925D01*
X2176119Y2655214D01*
X2170633Y2653284D01*
X2165756Y2650185D01*
X2161641Y2646121D01*
X2158593Y2641193D01*
X2156663Y2635758D01*
X2155952Y2629408D01*
X2155952Y2450592D01*
X2156663Y2444242D01*
X2158593Y2438806D01*
X2161641Y2433878D01*
X2165756Y2429814D01*
X2170633Y2426716D01*
X2176119Y2424785D01*
X2182418Y2424074D01*
X2293213Y2424074D01*
X2297125Y2423312D01*
X2300427Y2421128D01*
X2367026Y2354529D01*
X2370785Y2351074D01*
X2374646Y2348128D01*
X2378760Y2345486D01*
X2383078Y2343251D01*
X2387600Y2341372D01*
X2392222Y2339898D01*
X2396998Y2338832D01*
X2401824Y2338222D01*
X2406904Y2337968D01*
X2840126Y2337968D01*
X2845206Y2338222D01*
X2850083Y2338832D01*
X2854807Y2339898D01*
X2859481Y2341372D01*
X2864002Y2343251D01*
X2868320Y2345486D01*
X2872435Y2348128D01*
X2876296Y2351074D01*
X2880055Y2354529D01*
X3246780Y2721254D01*
X3250234Y2725013D01*
X3253181Y2728874D01*
X3255822Y2732989D01*
X3258058Y2737307D01*
X3259937Y2741828D01*
X3261410Y2746502D01*
X3262477Y2751226D01*
X3263087Y2756103D01*
X3263341Y2761183D01*
X3263341Y3021228D01*
X3264052Y3024987D01*
X3266135Y3028238D01*
X3269234Y3030474D01*
X3272942Y3031388D01*
X3276752Y3030829D01*
X3280562Y3028543D01*
X3292856Y3020415D01*
X3299460Y3017113D01*
X3299460Y3070860D01*
X3273501Y3070860D01*
X3269589Y3071622D01*
X3266287Y3073857D01*
X3264103Y3077108D01*
X3263341Y3081020D01*
X3263341Y3167380D01*
X3264103Y3171291D01*
X3266287Y3174542D01*
X3269589Y3176778D01*
X3273501Y3177540D01*
X3299460Y3177540D01*
X3299460Y3231286D01*
X3292856Y3227984D01*
X3280105Y3219450D01*
X3276752Y3217570D01*
X3272942Y3217011D01*
X3269234Y3217926D01*
X3266135Y3220161D01*
X3264052Y3223412D01*
X3263341Y3227171D01*
X3263341Y3345129D01*
X3264103Y3349040D01*
X3266287Y3352342D01*
X3325977Y3411982D01*
X3328720Y3413963D01*
X3331921Y3414877D01*
X3335324Y3414725D01*
X3347110Y3412134D01*
X3361791Y3410762D01*
X3376574Y3411220D01*
X3391154Y3413506D01*
X3405327Y3417570D01*
X3418941Y3423310D01*
X3431692Y3430676D01*
X3443478Y3439566D01*
X3454095Y3449828D01*
X3463340Y3461359D01*
X3471113Y3473907D01*
X3477260Y3487318D01*
X3481730Y3501339D01*
X3484473Y3515868D01*
X3485387Y3530600D01*
X3484473Y3545332D01*
X3481730Y3559860D01*
X3477260Y3573881D01*
X3471113Y3587292D01*
X3463340Y3599840D01*
X3454095Y3611372D01*
X3443478Y3621633D01*
X3431692Y3630523D01*
X3426510Y3633520D01*
X3423767Y3635806D01*
X3422040Y3638854D01*
X3421430Y3642360D01*
X3421430Y5525516D01*
X3422192Y5529427D01*
X3424377Y5532729D01*
X3741165Y5849518D01*
X3744417Y5851702D01*
X3748176Y5852515D01*
X3752037Y5851804D01*
X3755288Y5849772D01*
X3757574Y5846622D01*
X3759911Y5841644D01*
X3765550Y5833567D01*
X3767124Y5831992D01*
X3769360Y5828690D01*
X3770122Y5824778D01*
X3770122Y2694178D01*
X3770934Y2686151D01*
X3773119Y2678938D01*
X3776675Y2672232D01*
X3781806Y2666034D01*
X3847287Y2600502D01*
X3849420Y2597404D01*
X3850284Y2593746D01*
X3849725Y2590038D01*
X3846474Y2580386D01*
X3843731Y2566670D01*
X3842816Y2552700D01*
X3843731Y2538730D01*
X3846474Y2525014D01*
X3850944Y2511806D01*
X3857142Y2499258D01*
X3863898Y2489098D01*
X3865524Y2485034D01*
X3865270Y2480716D01*
X3863187Y2476855D01*
X3859733Y2474214D01*
X3855465Y2473299D01*
X3833926Y2473299D01*
X3830015Y2474061D01*
X3826713Y2476296D01*
X3798112Y2504897D01*
X3795979Y2507996D01*
X3795115Y2511653D01*
X3795674Y2515362D01*
X3798925Y2525014D01*
X3801668Y2538730D01*
X3802583Y2552700D01*
X3801668Y2566670D01*
X3798925Y2580386D01*
X3794455Y2593594D01*
X3788257Y2606141D01*
X3780485Y2617774D01*
X3771290Y2628290D01*
X3760774Y2637485D01*
X3749141Y2645257D01*
X3736594Y2651455D01*
X3723386Y2655925D01*
X3709670Y2658668D01*
X3695700Y2659583D01*
X3681729Y2658668D01*
X3668014Y2655925D01*
X3654806Y2651455D01*
X3642258Y2645257D01*
X3630625Y2637485D01*
X3620109Y2628290D01*
X3610914Y2617774D01*
X3603142Y2606141D01*
X3596944Y2593594D01*
X3592474Y2580386D01*
X3589731Y2566670D01*
X3588816Y2552700D01*
X3589731Y2538730D01*
X3592474Y2525014D01*
X3596944Y2511806D01*
X3603142Y2499258D01*
X3610914Y2487625D01*
X3620109Y2477109D01*
X3630625Y2467914D01*
X3642258Y2460142D01*
X3654806Y2453944D01*
X3668014Y2449474D01*
X3681729Y2446731D01*
X3695700Y2445816D01*
X3709670Y2446731D01*
X3723386Y2449474D01*
X3733037Y2452725D01*
X3736746Y2453284D01*
X3740404Y2452420D01*
X3743502Y2450287D01*
X3786073Y2407767D01*
X3792270Y2402636D01*
X3798976Y2399080D01*
X3806190Y2396896D01*
X3814216Y2396083D01*
X4008577Y2396083D01*
X4016603Y2396896D01*
X4023817Y2399080D01*
X4030522Y2402636D01*
X4036720Y2407767D01*
X4103624Y2474671D01*
X4108907Y2481072D01*
X4112361Y2483815D01*
X4116628Y2484780D01*
X4120896Y2483916D01*
X4124401Y2481326D01*
X4128109Y2477109D01*
X4138625Y2467914D01*
X4150258Y2460142D01*
X4162806Y2453944D01*
X4176014Y2449474D01*
X4189729Y2446731D01*
X4203700Y2445816D01*
X4217670Y2446731D01*
X4231386Y2449474D01*
X4244594Y2453944D01*
X4257141Y2460142D01*
X4268774Y2467914D01*
X4279290Y2477109D01*
X4288485Y2487625D01*
X4296257Y2499258D01*
X4302455Y2511806D01*
X4306925Y2525014D01*
X4309668Y2538730D01*
X4310583Y2552700D01*
X4309668Y2566670D01*
X4306925Y2580386D01*
X4302455Y2593594D01*
X4296257Y2606141D01*
X4288485Y2617774D01*
X4279290Y2628290D01*
X4268774Y2637485D01*
X4257141Y2645257D01*
X4244594Y2651455D01*
X4231386Y2655925D01*
X4217670Y2658668D01*
X4206595Y2659380D01*
X4202887Y2660396D01*
X4199788Y2662682D01*
X4197756Y2665933D01*
X4197146Y2669743D01*
X4197959Y2673502D01*
X4200093Y2676702D01*
X4273092Y2749753D01*
X4278223Y2755950D01*
X4281779Y2762656D01*
X4283964Y2769870D01*
X4284776Y2777896D01*
X4284776Y3092450D01*
X4285538Y3096310D01*
X4287774Y3099612D01*
X4375404Y3187242D01*
X4378706Y3189478D01*
X4382566Y3190240D01*
X4417060Y3190240D01*
X4417060Y3224733D01*
X4417822Y3228594D01*
X4420057Y3231896D01*
X4667961Y3479850D01*
X4673092Y3486099D01*
X4676648Y3492754D01*
X4678832Y3499967D01*
X4679645Y3507994D01*
X4679645Y5305806D01*
X4680407Y5309717D01*
X4682642Y5313019D01*
X4687773Y5318150D01*
X4693361Y5326176D01*
X4697526Y5335066D01*
X4699355Y5341823D01*
X4701235Y5345531D01*
X4704435Y5348173D01*
X4708398Y5349341D01*
X4712512Y5348782D01*
X4716068Y5346649D01*
X4718456Y5343296D01*
X4719320Y5339232D01*
X4719320Y2900680D01*
X4720132Y2892653D01*
X4722317Y2885440D01*
X4725873Y2878734D01*
X4731004Y2872536D01*
X5002987Y2600502D01*
X5005120Y2597404D01*
X5005984Y2593746D01*
X5005425Y2590038D01*
X5002174Y2580386D01*
X4999431Y2566670D01*
X4998516Y2552700D01*
X4999431Y2538730D01*
X5002174Y2525014D01*
X5006644Y2511806D01*
X5012842Y2499258D01*
X5019598Y2489098D01*
X5021224Y2485034D01*
X5020970Y2480716D01*
X5018887Y2476855D01*
X5015433Y2474214D01*
X5011166Y2473299D01*
X4989626Y2473299D01*
X4985715Y2474061D01*
X4982413Y2476296D01*
X4953812Y2504897D01*
X4951679Y2507996D01*
X4950815Y2511653D01*
X4951374Y2515362D01*
X4954625Y2525014D01*
X4957368Y2538730D01*
X4958283Y2552700D01*
X4957368Y2566670D01*
X4954625Y2580386D01*
X4950155Y2593594D01*
X4943957Y2606141D01*
X4936185Y2617774D01*
X4926990Y2628290D01*
X4916474Y2637485D01*
X4904841Y2645257D01*
X4892294Y2651455D01*
X4879086Y2655925D01*
X4865370Y2658668D01*
X4851400Y2659583D01*
X4837430Y2658668D01*
X4823714Y2655925D01*
X4810506Y2651455D01*
X4797958Y2645257D01*
X4786325Y2637485D01*
X4775809Y2628290D01*
X4766614Y2617774D01*
X4758842Y2606141D01*
X4752644Y2593594D01*
X4748174Y2580386D01*
X4745431Y2566670D01*
X4744516Y2552700D01*
X4745431Y2538730D01*
X4748174Y2525014D01*
X4752644Y2511806D01*
X4758842Y2499258D01*
X4766614Y2487625D01*
X4775809Y2477109D01*
X4786325Y2467914D01*
X4797958Y2460142D01*
X4810506Y2453944D01*
X4823714Y2449474D01*
X4837430Y2446731D01*
X4851400Y2445816D01*
X4865370Y2446731D01*
X4879086Y2449474D01*
X4888738Y2452725D01*
X4892446Y2453284D01*
X4896104Y2452420D01*
X4899202Y2450287D01*
X4941773Y2407767D01*
X4947970Y2402636D01*
X4954676Y2399080D01*
X4961890Y2396896D01*
X4969916Y2396083D01*
X5164277Y2396083D01*
X5172303Y2396896D01*
X5179517Y2399080D01*
X5186222Y2402636D01*
X5192420Y2407767D01*
X5259324Y2474671D01*
X5264607Y2481072D01*
X5268061Y2483815D01*
X5272328Y2484780D01*
X5276596Y2483916D01*
X5280101Y2481326D01*
X5283809Y2477109D01*
X5294325Y2467914D01*
X5305958Y2460142D01*
X5318506Y2453944D01*
X5331714Y2449474D01*
X5345430Y2446731D01*
X5359400Y2445816D01*
X5373370Y2446731D01*
X5387086Y2449474D01*
X5400294Y2453944D01*
X5412841Y2460142D01*
X5424474Y2467914D01*
X5434990Y2477109D01*
X5444185Y2487625D01*
X5451957Y2499258D01*
X5458155Y2511806D01*
X5462625Y2525014D01*
X5465368Y2538730D01*
X5466283Y2552700D01*
X5465368Y2566670D01*
X5462625Y2580386D01*
X5458155Y2593594D01*
X5451957Y2606141D01*
X5444185Y2617774D01*
X5434990Y2628290D01*
X5424474Y2637485D01*
X5412841Y2645257D01*
X5400294Y2651455D01*
X5387086Y2655925D01*
X5379821Y2657398D01*
X5375808Y2659126D01*
X5372963Y2662377D01*
X5371693Y2666542D01*
X5372252Y2670860D01*
X5374640Y2674518D01*
X5413603Y2713532D01*
X5416905Y2715717D01*
X5420817Y2716479D01*
X5495645Y2716479D01*
X5503672Y2717292D01*
X5510885Y2719476D01*
X5517591Y2723032D01*
X5523788Y2728163D01*
X5981649Y3186023D01*
X5986780Y3192272D01*
X5990336Y3198926D01*
X5992520Y3206140D01*
X5993333Y3214166D01*
X5993333Y4573066D01*
X5992520Y4581093D01*
X5990336Y4588306D01*
X5986780Y4595012D01*
X5981649Y4601210D01*
X5916320Y4666589D01*
X5914034Y4669993D01*
X5913323Y4674057D01*
X5914237Y4678019D01*
X5915660Y4681118D01*
X5920130Y4695139D01*
X5922873Y4709668D01*
X5923788Y4724400D01*
X5922873Y4739132D01*
X5920130Y4753660D01*
X5915660Y4767681D01*
X5909513Y4781092D01*
X5901740Y4793640D01*
X5892495Y4805172D01*
X5881878Y4815433D01*
X5870092Y4824323D01*
X5857341Y4831689D01*
X5843727Y4837430D01*
X5829554Y4841494D01*
X5814974Y4843780D01*
X5800191Y4844186D01*
X5785510Y4842865D01*
X5771083Y4839716D01*
X5757164Y4834788D01*
X5743956Y4828184D01*
X5731662Y4820056D01*
X5720435Y4810455D01*
X5710529Y4799533D01*
X5701995Y4787493D01*
X5694984Y4774488D01*
X5689650Y4760722D01*
X5686094Y4746447D01*
X5684266Y4731766D01*
X5684266Y4717034D01*
X5686094Y4702352D01*
X5689650Y4688078D01*
X5694984Y4674311D01*
X5701995Y4661306D01*
X5710529Y4649266D01*
X5720435Y4638344D01*
X5731662Y4628743D01*
X5743956Y4620615D01*
X5757164Y4614011D01*
X5771083Y4609084D01*
X5785510Y4605934D01*
X5800191Y4604562D01*
X5814974Y4605020D01*
X5829554Y4607306D01*
X5843727Y4611370D01*
X5850534Y4614214D01*
X5854446Y4615027D01*
X5858357Y4614265D01*
X5861659Y4612030D01*
X5913120Y4560570D01*
X5915355Y4557268D01*
X5916117Y4553356D01*
X5916117Y4360113D01*
X5915253Y4356049D01*
X5912866Y4352696D01*
X5909310Y4350512D01*
X5905246Y4350004D01*
X5901232Y4351121D01*
X5898032Y4353763D01*
X5892495Y4360672D01*
X5881878Y4370933D01*
X5870092Y4379823D01*
X5857341Y4387189D01*
X5843727Y4392930D01*
X5829554Y4396994D01*
X5814974Y4399280D01*
X5800191Y4399686D01*
X5785510Y4398365D01*
X5771083Y4395216D01*
X5757164Y4390288D01*
X5743956Y4383684D01*
X5731662Y4375556D01*
X5720435Y4365955D01*
X5710529Y4355033D01*
X5701995Y4342993D01*
X5694984Y4329988D01*
X5689650Y4316222D01*
X5686094Y4301947D01*
X5684266Y4287266D01*
X5684266Y4272534D01*
X5686094Y4257852D01*
X5689650Y4243578D01*
X5694984Y4229811D01*
X5701995Y4216806D01*
X5710529Y4204766D01*
X5720435Y4193844D01*
X5731662Y4184243D01*
X5743956Y4176115D01*
X5757164Y4169511D01*
X5771083Y4164584D01*
X5785510Y4161434D01*
X5800191Y4160062D01*
X5814974Y4160520D01*
X5829554Y4162806D01*
X5843727Y4166870D01*
X5857341Y4172610D01*
X5870092Y4179976D01*
X5881878Y4188866D01*
X5892495Y4199128D01*
X5898032Y4206036D01*
X5901232Y4208678D01*
X5905246Y4209796D01*
X5909310Y4209288D01*
X5912866Y4207103D01*
X5915253Y4203750D01*
X5916117Y4199686D01*
X5916117Y3839413D01*
X5915253Y3835349D01*
X5912866Y3831996D01*
X5909310Y3829812D01*
X5905246Y3829304D01*
X5901232Y3830421D01*
X5898032Y3833063D01*
X5892495Y3839972D01*
X5881878Y3850233D01*
X5870092Y3859123D01*
X5857240Y3866540D01*
X5857240Y3812540D01*
X5905957Y3812540D01*
X5909868Y3811778D01*
X5913120Y3809542D01*
X5915355Y3806291D01*
X5916117Y3802379D01*
X5916117Y3716020D01*
X5915355Y3712108D01*
X5913120Y3708857D01*
X5909868Y3706622D01*
X5905957Y3705860D01*
X5857240Y3705860D01*
X5857240Y3651859D01*
X5870092Y3659276D01*
X5881878Y3668166D01*
X5892495Y3678428D01*
X5898032Y3685336D01*
X5901232Y3687978D01*
X5905246Y3689096D01*
X5909310Y3688587D01*
X5912866Y3686403D01*
X5915253Y3683050D01*
X5916117Y3678986D01*
X5916117Y3358032D01*
X5915355Y3354171D01*
X5913170Y3350920D01*
X5909919Y3348685D01*
X5906058Y3347923D01*
X5902198Y3348634D01*
X5898896Y3350768D01*
X5894578Y3354933D01*
X5882792Y3363823D01*
X5869940Y3371240D01*
X5869940Y3317240D01*
X5905957Y3317240D01*
X5909868Y3316478D01*
X5913120Y3314242D01*
X5915355Y3310991D01*
X5916117Y3307079D01*
X5916117Y3233877D01*
X5915355Y3230016D01*
X5913120Y3226714D01*
X5899962Y3213557D01*
X5896660Y3211322D01*
X5892800Y3210560D01*
X5869940Y3210560D01*
X5869940Y3187700D01*
X5869178Y3183839D01*
X5866942Y3180537D01*
X5483148Y2796692D01*
X5479846Y2794508D01*
X5475935Y2793695D01*
X5401106Y2793695D01*
X5393080Y2792933D01*
X5385866Y2790748D01*
X5379161Y2787192D01*
X5372963Y2782062D01*
X5206339Y2615438D01*
X5202580Y2613101D01*
X5198160Y2612542D01*
X5193944Y2613914D01*
X5190185Y2617774D01*
X5180990Y2628290D01*
X5170474Y2637485D01*
X5158841Y2645257D01*
X5146294Y2651455D01*
X5133086Y2655925D01*
X5119370Y2658668D01*
X5105400Y2659583D01*
X5091430Y2658668D01*
X5077714Y2655925D01*
X5068062Y2652674D01*
X5064353Y2652115D01*
X5060696Y2652979D01*
X5057597Y2655112D01*
X4799533Y2913176D01*
X4797298Y2916478D01*
X4796536Y2920390D01*
X4796536Y5402427D01*
X4797298Y5406288D01*
X4799533Y5409590D01*
X4802784Y5411774D01*
X4806696Y5412587D01*
X4810607Y5411774D01*
X4813858Y5409590D01*
X4858664Y5364784D01*
X4860848Y5361584D01*
X4861661Y5357774D01*
X4861001Y5353964D01*
X4858918Y5350662D01*
X4854448Y5347766D01*
X4846421Y5342128D01*
X4839462Y5335168D01*
X4833823Y5327142D01*
X4829657Y5318252D01*
X4827117Y5308752D01*
X4826254Y5298948D01*
X4827117Y5289143D01*
X4829657Y5279644D01*
X4833823Y5270754D01*
X4839462Y5262727D01*
X4841036Y5261102D01*
X4843272Y5257800D01*
X4844034Y5253939D01*
X4844034Y3487165D01*
X4844846Y3479139D01*
X4847031Y3471926D01*
X4850587Y3465220D01*
X4855718Y3459022D01*
X5119979Y3194710D01*
X5122164Y3191459D01*
X5122976Y3187700D01*
X5122265Y3183839D01*
X5118150Y3173222D01*
X5114594Y3158947D01*
X5112766Y3144266D01*
X5112766Y3129534D01*
X5114594Y3114852D01*
X5118150Y3100578D01*
X5123484Y3086811D01*
X5130495Y3073806D01*
X5139029Y3061766D01*
X5148935Y3050844D01*
X5160162Y3041243D01*
X5172456Y3033115D01*
X5185664Y3026511D01*
X5199583Y3021584D01*
X5214010Y3018434D01*
X5228691Y3017062D01*
X5243474Y3017520D01*
X5258054Y3019806D01*
X5272227Y3023870D01*
X5285841Y3029610D01*
X5298592Y3036976D01*
X5310378Y3045866D01*
X5320995Y3056128D01*
X5330240Y3067659D01*
X5338013Y3080207D01*
X5344160Y3093618D01*
X5348630Y3107639D01*
X5351373Y3122168D01*
X5352288Y3136900D01*
X5351373Y3151632D01*
X5348630Y3166160D01*
X5344160Y3180181D01*
X5338013Y3193592D01*
X5330240Y3206140D01*
X5320995Y3217672D01*
X5310378Y3227933D01*
X5298592Y3236823D01*
X5285841Y3244189D01*
X5272227Y3249930D01*
X5258054Y3253994D01*
X5243474Y3256279D01*
X5228691Y3256686D01*
X5214010Y3255365D01*
X5199583Y3252215D01*
X5185003Y3247034D01*
X5181295Y3246475D01*
X5177586Y3247288D01*
X5174437Y3249422D01*
X4924247Y3499662D01*
X4922012Y3502964D01*
X4921250Y3506876D01*
X4921250Y5253939D01*
X4922012Y5257800D01*
X4924247Y5261102D01*
X4925822Y5262727D01*
X4931460Y5270754D01*
X4934356Y5275224D01*
X4937658Y5277307D01*
X4941468Y5277967D01*
X4945278Y5277154D01*
X4948478Y5274970D01*
X4979568Y5243931D01*
X4981752Y5240629D01*
X4982514Y5236718D01*
X4982514Y4750155D01*
X4983429Y4737557D01*
X4986020Y4725619D01*
X4990338Y4714138D01*
X4996180Y4703368D01*
X5003546Y4693564D01*
X5012182Y4684877D01*
X5022037Y4677562D01*
X5032756Y4671669D01*
X5044236Y4667402D01*
X5056225Y4664811D01*
X5068468Y4663897D01*
X5080660Y4664811D01*
X5092649Y4667402D01*
X5104130Y4671669D01*
X5114899Y4677562D01*
X5124704Y4684877D01*
X5133340Y4693564D01*
X5140756Y4703470D01*
X5143347Y4706569D01*
X5146903Y4708398D01*
X5150916Y4708702D01*
X5154726Y4707432D01*
X5157774Y4704791D01*
X5161940Y4699304D01*
X5170271Y4691278D01*
X5179771Y4684572D01*
X5187188Y4680915D01*
X5187188Y4718456D01*
X5161889Y4718456D01*
X5157520Y4719421D01*
X5153964Y4722215D01*
X5152034Y4726279D01*
X5151983Y4730750D01*
X5153456Y4737557D01*
X5154371Y4750155D01*
X5154371Y4770983D01*
X5155133Y4774895D01*
X5157317Y4778197D01*
X5160619Y4780381D01*
X5164531Y4781143D01*
X5187188Y4781143D01*
X5187188Y4818735D01*
X5184902Y4817821D01*
X5174894Y4811877D01*
X5170982Y4808626D01*
X5167630Y4806797D01*
X5163870Y4806340D01*
X5160162Y4807254D01*
X5157114Y4809490D01*
X5155082Y4812741D01*
X5154371Y4816449D01*
X5154371Y5276342D01*
X5154117Y5282641D01*
X5153456Y5288737D01*
X5152390Y5294782D01*
X5150866Y5300726D01*
X5148935Y5306517D01*
X5146598Y5312206D01*
X5143855Y5317693D01*
X5140706Y5322976D01*
X5137200Y5328005D01*
X5133340Y5332780D01*
X5129072Y5337403D01*
X4554728Y5911697D01*
X4550105Y5916015D01*
X4545330Y5919876D01*
X4540300Y5923381D01*
X4535017Y5926480D01*
X4529531Y5929223D01*
X4523892Y5931560D01*
X4518050Y5933490D01*
X4512106Y5935014D01*
X4506112Y5936132D01*
X4500016Y5936792D01*
X4493666Y5936996D01*
X4461560Y5936996D01*
X4448962Y5936081D01*
X4436973Y5933490D01*
X4425492Y5929223D01*
X4414774Y5923330D01*
X4404918Y5916015D01*
X4396282Y5907328D01*
X4388916Y5897524D01*
X4383074Y5886754D01*
X4378756Y5875274D01*
X4378198Y5872530D01*
X4376369Y5868619D01*
X4373118Y5865774D01*
X4368952Y5864555D01*
X4364685Y5865164D01*
X4361078Y5867501D01*
X4029913Y6198666D01*
X4027678Y6201968D01*
X4026915Y6205880D01*
X4026915Y6809486D01*
X4026103Y6817512D01*
X4023918Y6824725D01*
X4020362Y6831431D01*
X4015232Y6837629D01*
X3568242Y7284669D01*
X3566058Y7287920D01*
X3565296Y7291831D01*
X3566058Y7295743D01*
X3568242Y7298994D01*
X3571544Y7301230D01*
X3575456Y7301992D01*
X9590684Y7301992D01*
X9594596Y7301230D01*
X9597847Y7299045D01*
X9600082Y7295794D01*
X9600844Y7291933D01*
X9613900Y5562803D01*
X9613900Y2308860D01*
X9613138Y2304948D01*
X9610902Y2301697D01*
X9607651Y2299462D01*
X9603740Y2298700D01*
G37*

%LPC*%
G36*
X8077200Y2420924D02*
G01*
X8091728Y2421839D01*
X8106003Y2424531D01*
X8119872Y2429052D01*
X8133029Y2435250D01*
X8145322Y2443022D01*
X8156549Y2452319D01*
X8166506Y2462936D01*
X8175040Y2474722D01*
X8182051Y2487472D01*
X8187436Y2500985D01*
X8191042Y2515057D01*
X8192871Y2529535D01*
X8192871Y2544064D01*
X8191042Y2558491D01*
X8187436Y2572613D01*
X8182051Y2586126D01*
X8175040Y2598877D01*
X8166506Y2610662D01*
X8156549Y2621280D01*
X8145322Y2630525D01*
X8133029Y2638348D01*
X8119872Y2644546D01*
X8106003Y2649016D01*
X8091728Y2651760D01*
X8077200Y2652674D01*
X8062671Y2651760D01*
X8048396Y2649016D01*
X8034528Y2644546D01*
X8021370Y2638348D01*
X8009077Y2630525D01*
X7997850Y2621280D01*
X7987893Y2610662D01*
X7979359Y2598877D01*
X7972348Y2586126D01*
X7966964Y2572613D01*
X7963357Y2558491D01*
X7961528Y2544064D01*
X7961528Y2529535D01*
X7963357Y2515057D01*
X7966964Y2500985D01*
X7972348Y2487472D01*
X7979359Y2474722D01*
X7987893Y2462936D01*
X7997850Y2452319D01*
X8009077Y2443022D01*
X8021370Y2435250D01*
X8034528Y2429052D01*
X8048396Y2424531D01*
X8062671Y2421839D01*
G37*
G36*
X4516983Y2445816D02*
G01*
X4550562Y2445816D01*
X4550562Y2505862D01*
X4490516Y2505862D01*
X4490516Y2472283D01*
X4491228Y2465933D01*
X4493107Y2460498D01*
X4496206Y2455570D01*
X4500270Y2451506D01*
X4505198Y2448407D01*
X4510633Y2446528D01*
G37*
G36*
X3361283Y2445816D02*
G01*
X3394862Y2445816D01*
X3394862Y2505862D01*
X3334816Y2505862D01*
X3334816Y2472283D01*
X3335528Y2465933D01*
X3337407Y2460498D01*
X3340506Y2455570D01*
X3344570Y2451506D01*
X3349498Y2448407D01*
X3354933Y2446528D01*
G37*
G36*
X3488537Y2445816D02*
G01*
X3522116Y2445816D01*
X3528466Y2446528D01*
X3533901Y2448407D01*
X3538829Y2451506D01*
X3542893Y2455570D01*
X3545992Y2460498D01*
X3547872Y2465933D01*
X3548583Y2472283D01*
X3548583Y2505862D01*
X3488537Y2505862D01*
G37*
G36*
X4644237Y2445816D02*
G01*
X4677816Y2445816D01*
X4684166Y2446528D01*
X4689602Y2448407D01*
X4694529Y2451506D01*
X4698593Y2455570D01*
X4701692Y2460498D01*
X4703572Y2465933D01*
X4704283Y2472283D01*
X4704283Y2505862D01*
X4644237Y2505862D01*
G37*
G36*
X1867458Y2448966D02*
G01*
X1878177Y2454859D01*
X1889963Y2463393D01*
X1900580Y2473350D01*
X1909876Y2484577D01*
X1917649Y2496870D01*
X1919782Y2501341D01*
X1867458Y2501341D01*
G37*
G36*
X7345934Y2510942D02*
G01*
X7360615Y2517444D01*
X7373620Y2525318D01*
X7385558Y2534666D01*
X7396327Y2545435D01*
X7405725Y2557373D01*
X7413548Y2570378D01*
X7414514Y2572562D01*
X7345934Y2572562D01*
G37*
G36*
X7208266Y2510942D02*
G01*
X7208266Y2572562D01*
X7139686Y2572562D01*
X7140651Y2570378D01*
X7148474Y2557373D01*
X7157872Y2545435D01*
X7168642Y2534666D01*
X7180580Y2525318D01*
X7193584Y2517444D01*
G37*
G36*
X9194800Y2570073D02*
G01*
X9209989Y2570988D01*
X9224924Y2573731D01*
X9239453Y2578252D01*
X9253321Y2584500D01*
X9266326Y2592374D01*
X9278264Y2601722D01*
X9289034Y2612491D01*
X9298381Y2624429D01*
X9306255Y2637434D01*
X9312503Y2651302D01*
X9317024Y2665831D01*
X9319768Y2680766D01*
X9320733Y2696768D01*
X9321596Y2700324D01*
X9323679Y2703322D01*
X9442602Y2822244D01*
X9446869Y2826867D01*
X9450730Y2831642D01*
X9454235Y2836672D01*
X9457385Y2841955D01*
X9460128Y2847441D01*
X9462465Y2853131D01*
X9464395Y2858922D01*
X9465919Y2864866D01*
X9466986Y2870911D01*
X9467646Y2877007D01*
X9467900Y2883306D01*
X9467900Y3981805D01*
X9467646Y3988104D01*
X9466986Y3994200D01*
X9465919Y4000246D01*
X9464395Y4006189D01*
X9462465Y4011980D01*
X9460128Y4017670D01*
X9457385Y4023156D01*
X9454235Y4028440D01*
X9450730Y4033469D01*
X9446869Y4038244D01*
X9442602Y4042867D01*
X9336379Y4149090D01*
X9334144Y4152392D01*
X9333382Y4156659D01*
X9334144Y4160520D01*
X9336379Y4163822D01*
X9471304Y4298797D01*
X9475622Y4303420D01*
X9479483Y4308195D01*
X9482988Y4313224D01*
X9486087Y4318508D01*
X9488830Y4323994D01*
X9491167Y4329633D01*
X9493097Y4335475D01*
X9494621Y4341418D01*
X9495739Y4347413D01*
X9496399Y4353509D01*
X9496602Y4359859D01*
X9496602Y6692188D01*
X9496399Y6698538D01*
X9495739Y6704634D01*
X9494621Y6710629D01*
X9493097Y6716572D01*
X9491167Y6722414D01*
X9488830Y6728053D01*
X9486087Y6733540D01*
X9482988Y6738823D01*
X9479483Y6743852D01*
X9475622Y6748627D01*
X9471304Y6753250D01*
X9351772Y6872833D01*
X9349587Y6876084D01*
X9348774Y6879996D01*
X9348774Y6909866D01*
X9347860Y6924700D01*
X9345117Y6939025D01*
X9340646Y6952843D01*
X9334449Y6966000D01*
X9326626Y6978294D01*
X9317380Y6989521D01*
X9306763Y6999478D01*
X9294977Y7008063D01*
X9282226Y7015073D01*
X9268714Y7020407D01*
X9254591Y7024014D01*
X9240164Y7025843D01*
X9225635Y7025843D01*
X9211157Y7024014D01*
X9197086Y7020407D01*
X9183522Y7015073D01*
X9170771Y7008063D01*
X9159036Y6999478D01*
X9148419Y6989521D01*
X9139123Y6978294D01*
X9131350Y6966000D01*
X9125153Y6952843D01*
X9120632Y6939025D01*
X9117888Y6924700D01*
X9116974Y6909866D01*
X9116974Y6830517D01*
X9117888Y6815683D01*
X9120632Y6801358D01*
X9125153Y6787540D01*
X9131350Y6774383D01*
X9139123Y6762089D01*
X9148419Y6750862D01*
X9159036Y6740906D01*
X9170771Y6732371D01*
X9183522Y6725361D01*
X9197086Y6719976D01*
X9211157Y6716369D01*
X9225635Y6714540D01*
X9240164Y6714540D01*
X9254591Y6716369D01*
X9257436Y6717080D01*
X9260941Y6717385D01*
X9264294Y6716420D01*
X9267190Y6714439D01*
X9321800Y6659778D01*
X9324035Y6656476D01*
X9324797Y6652615D01*
X9324797Y6177381D01*
X9324035Y6173520D01*
X9321800Y6170218D01*
X9318498Y6167983D01*
X9314637Y6167221D01*
X9310725Y6167983D01*
X9307423Y6170218D01*
X9303664Y6173978D01*
X9291726Y6183325D01*
X9278721Y6191199D01*
X9276537Y6192164D01*
X9276537Y6136081D01*
X9314637Y6136081D01*
X9318498Y6135319D01*
X9321800Y6133134D01*
X9324035Y6129832D01*
X9324797Y6125921D01*
X9324797Y6033566D01*
X9324035Y6029655D01*
X9321800Y6026353D01*
X9318498Y6024168D01*
X9314637Y6023406D01*
X9276537Y6023406D01*
X9276537Y5967323D01*
X9278721Y5968288D01*
X9291726Y5976162D01*
X9303664Y5985510D01*
X9307423Y5989269D01*
X9310725Y5991504D01*
X9314637Y5992266D01*
X9318498Y5991504D01*
X9321800Y5989269D01*
X9324035Y5985967D01*
X9324797Y5982106D01*
X9324797Y5676493D01*
X9324035Y5672632D01*
X9321800Y5669330D01*
X9318498Y5667095D01*
X9314637Y5666333D01*
X9310725Y5667095D01*
X9307423Y5669330D01*
X9303664Y5673090D01*
X9291726Y5682437D01*
X9278721Y5690311D01*
X9264853Y5696559D01*
X9250324Y5701080D01*
X9235389Y5703824D01*
X9220200Y5704738D01*
X9205010Y5703824D01*
X9190075Y5701080D01*
X9175546Y5696559D01*
X9161678Y5690311D01*
X9148673Y5682437D01*
X9136735Y5673090D01*
X9125966Y5662320D01*
X9116618Y5650382D01*
X9108744Y5637377D01*
X9102496Y5623509D01*
X9097975Y5608980D01*
X9095232Y5594045D01*
X9094317Y5578856D01*
X9095232Y5563666D01*
X9097975Y5548731D01*
X9102496Y5534202D01*
X9108744Y5520334D01*
X9116618Y5507329D01*
X9125966Y5495391D01*
X9136735Y5484622D01*
X9148673Y5475274D01*
X9161678Y5467400D01*
X9175546Y5461152D01*
X9190075Y5456631D01*
X9205010Y5453888D01*
X9220200Y5452973D01*
X9235389Y5453888D01*
X9250324Y5456631D01*
X9264853Y5461152D01*
X9278721Y5467400D01*
X9291726Y5475274D01*
X9303664Y5484622D01*
X9307423Y5488381D01*
X9310725Y5490616D01*
X9314637Y5491378D01*
X9318498Y5490616D01*
X9321800Y5488381D01*
X9324035Y5485079D01*
X9324797Y5481218D01*
X9324797Y4740808D01*
X9323933Y4736744D01*
X9321546Y4733340D01*
X9317939Y4731207D01*
X9313824Y4730699D01*
X9309811Y4731867D01*
X9306610Y4734560D01*
X9301734Y4740808D01*
X9290964Y4751578D01*
X9279026Y4760925D01*
X9266021Y4768799D01*
X9252153Y4775047D01*
X9237624Y4779568D01*
X9222689Y4782312D01*
X9207500Y4783226D01*
X9192310Y4782312D01*
X9177375Y4779568D01*
X9162846Y4775047D01*
X9148978Y4768799D01*
X9135973Y4760925D01*
X9124035Y4751578D01*
X9113266Y4740808D01*
X9103918Y4728870D01*
X9096044Y4715865D01*
X9089796Y4701997D01*
X9085275Y4687468D01*
X9082532Y4672533D01*
X9081617Y4657344D01*
X9082532Y4642154D01*
X9085275Y4627219D01*
X9089796Y4612690D01*
X9096044Y4598822D01*
X9103918Y4585817D01*
X9113266Y4573879D01*
X9124035Y4563110D01*
X9135973Y4553762D01*
X9148978Y4545888D01*
X9162846Y4539640D01*
X9177375Y4535119D01*
X9192310Y4532376D01*
X9207500Y4531461D01*
X9222689Y4532376D01*
X9237624Y4535119D01*
X9252153Y4539640D01*
X9266021Y4545888D01*
X9279026Y4553762D01*
X9290964Y4563110D01*
X9301734Y4573879D01*
X9306610Y4580128D01*
X9309811Y4582820D01*
X9313824Y4583988D01*
X9317939Y4583480D01*
X9321546Y4581347D01*
X9323933Y4577943D01*
X9324797Y4573879D01*
X9324797Y4399432D01*
X9324035Y4395571D01*
X9321800Y4392269D01*
X9214866Y4285335D01*
X9211868Y4283252D01*
X9208312Y4282389D01*
X9192310Y4281424D01*
X9177375Y4278680D01*
X9162846Y4274159D01*
X9148978Y4267911D01*
X9135973Y4260037D01*
X9124035Y4250690D01*
X9113266Y4239920D01*
X9103918Y4227982D01*
X9096044Y4214977D01*
X9089796Y4201109D01*
X9085275Y4186580D01*
X9082532Y4171645D01*
X9081617Y4156456D01*
X9082532Y4141266D01*
X9085275Y4126331D01*
X9089796Y4111802D01*
X9096044Y4097934D01*
X9103918Y4084929D01*
X9113266Y4072991D01*
X9124035Y4062222D01*
X9135973Y4052874D01*
X9148978Y4045000D01*
X9162846Y4038752D01*
X9177375Y4034231D01*
X9192310Y4031487D01*
X9208312Y4030522D01*
X9211868Y4029659D01*
X9214866Y4027576D01*
X9293098Y3949395D01*
X9295282Y3946093D01*
X9296044Y3942181D01*
X9296044Y3297834D01*
X9295282Y3293922D01*
X9293098Y3290620D01*
X9289796Y3288436D01*
X9285884Y3287674D01*
X9282023Y3288436D01*
X9278264Y3291078D01*
X9266326Y3300425D01*
X9253321Y3308299D01*
X9239453Y3314547D01*
X9224924Y3319068D01*
X9209989Y3321812D01*
X9194800Y3322726D01*
X9179610Y3321812D01*
X9164675Y3319068D01*
X9150146Y3314547D01*
X9136278Y3308299D01*
X9123273Y3300425D01*
X9111335Y3291078D01*
X9100566Y3280308D01*
X9091218Y3268370D01*
X9083344Y3255365D01*
X9077096Y3241497D01*
X9072575Y3226968D01*
X9069832Y3212033D01*
X9068917Y3196844D01*
X9069832Y3181654D01*
X9072575Y3166719D01*
X9077096Y3152190D01*
X9083344Y3138322D01*
X9091218Y3125317D01*
X9100566Y3113379D01*
X9111335Y3102610D01*
X9123273Y3093262D01*
X9136278Y3085388D01*
X9150146Y3079140D01*
X9164675Y3074619D01*
X9179610Y3071876D01*
X9194800Y3070961D01*
X9209989Y3071876D01*
X9224924Y3074619D01*
X9239453Y3079140D01*
X9253321Y3085388D01*
X9266326Y3093262D01*
X9278721Y3103067D01*
X9282023Y3105251D01*
X9285884Y3106013D01*
X9289796Y3105251D01*
X9293098Y3103067D01*
X9295282Y3099765D01*
X9296044Y3095853D01*
X9296044Y2922930D01*
X9295282Y2919018D01*
X9293098Y2915716D01*
X9202166Y2824835D01*
X9199168Y2822752D01*
X9195612Y2821889D01*
X9179610Y2820924D01*
X9164675Y2818180D01*
X9150146Y2813659D01*
X9136278Y2807411D01*
X9123273Y2799537D01*
X9111335Y2790190D01*
X9100566Y2779420D01*
X9091218Y2767482D01*
X9083344Y2754477D01*
X9077096Y2740609D01*
X9072575Y2726080D01*
X9069832Y2711145D01*
X9068917Y2695956D01*
X9069832Y2680766D01*
X9072575Y2665831D01*
X9077096Y2651302D01*
X9083344Y2637434D01*
X9091218Y2624429D01*
X9100566Y2612491D01*
X9111335Y2601722D01*
X9123273Y2592374D01*
X9136278Y2584500D01*
X9150146Y2578252D01*
X9164675Y2573731D01*
X9179610Y2570988D01*
G37*
G36*
X2819958Y2591358D02*
G01*
X2872282Y2591358D01*
X2870149Y2595829D01*
X2862376Y2608122D01*
X2853080Y2619349D01*
X2842463Y2629306D01*
X2830677Y2637840D01*
X2819958Y2643733D01*
G37*
G36*
X2664917Y2591358D02*
G01*
X2717241Y2591358D01*
X2717241Y2643733D01*
X2706522Y2637840D01*
X2694736Y2629306D01*
X2684119Y2619349D01*
X2674823Y2608122D01*
X2667050Y2595829D01*
G37*
G36*
X4490516Y2599537D02*
G01*
X4550562Y2599537D01*
X4550562Y2659583D01*
X4516983Y2659583D01*
X4510633Y2658872D01*
X4505198Y2656992D01*
X4500270Y2653893D01*
X4496206Y2649829D01*
X4493107Y2644902D01*
X4491228Y2639466D01*
X4490516Y2633116D01*
G37*
G36*
X3334816Y2599537D02*
G01*
X3394862Y2599537D01*
X3394862Y2659583D01*
X3361283Y2659583D01*
X3354933Y2658872D01*
X3349498Y2656992D01*
X3344570Y2653893D01*
X3340506Y2649829D01*
X3337407Y2644902D01*
X3335528Y2639466D01*
X3334816Y2633116D01*
G37*
G36*
X4644237Y2599537D02*
G01*
X4704283Y2599537D01*
X4704283Y2633116D01*
X4703572Y2639466D01*
X4701692Y2644902D01*
X4698593Y2649829D01*
X4694529Y2653893D01*
X4689602Y2656992D01*
X4684166Y2658872D01*
X4677816Y2659583D01*
X4644237Y2659583D01*
G37*
G36*
X3488537Y2599537D02*
G01*
X3548583Y2599537D01*
X3548583Y2633116D01*
X3547872Y2639466D01*
X3545992Y2644902D01*
X3542893Y2649829D01*
X3538829Y2653893D01*
X3533901Y2656992D01*
X3528466Y2658872D01*
X3522116Y2659583D01*
X3488537Y2659583D01*
G37*
G36*
X1867458Y2604058D02*
G01*
X1919782Y2604058D01*
X1917649Y2608529D01*
X1909876Y2620822D01*
X1900580Y2632049D01*
X1889963Y2642006D01*
X1878177Y2650540D01*
X1867458Y2656433D01*
G37*
G36*
X5812891Y2674162D02*
G01*
X5827674Y2674620D01*
X5842254Y2676906D01*
X5856427Y2680970D01*
X5870041Y2686710D01*
X5882792Y2694076D01*
X5894578Y2702966D01*
X5905195Y2713228D01*
X5914440Y2724759D01*
X5922213Y2737307D01*
X5928360Y2750718D01*
X5932830Y2764739D01*
X5935573Y2779268D01*
X5936488Y2794000D01*
X5935573Y2808732D01*
X5932830Y2823260D01*
X5928360Y2837281D01*
X5922213Y2850692D01*
X5914440Y2863240D01*
X5905195Y2874772D01*
X5894578Y2885033D01*
X5882792Y2893923D01*
X5870041Y2901289D01*
X5856427Y2907030D01*
X5842254Y2911094D01*
X5827674Y2913380D01*
X5812891Y2913786D01*
X5798210Y2912465D01*
X5783783Y2909316D01*
X5769864Y2904388D01*
X5756656Y2897784D01*
X5744362Y2889656D01*
X5733135Y2880055D01*
X5723229Y2869133D01*
X5714695Y2857093D01*
X5707684Y2844088D01*
X5702350Y2830322D01*
X5698794Y2816047D01*
X5696966Y2801366D01*
X5696966Y2786634D01*
X5698794Y2771952D01*
X5702350Y2757678D01*
X5707684Y2743911D01*
X5714695Y2730906D01*
X5723229Y2718866D01*
X5733135Y2707944D01*
X5744362Y2698343D01*
X5756656Y2690215D01*
X5769864Y2683611D01*
X5783783Y2678684D01*
X5798210Y2675534D01*
G37*
G36*
X6574891Y2674162D02*
G01*
X6589674Y2674620D01*
X6604253Y2676906D01*
X6618427Y2680970D01*
X6632041Y2686710D01*
X6644792Y2694076D01*
X6656578Y2702966D01*
X6667195Y2713228D01*
X6676440Y2724759D01*
X6684213Y2737307D01*
X6690359Y2750718D01*
X6694830Y2764739D01*
X6697573Y2779268D01*
X6698488Y2794000D01*
X6697573Y2808732D01*
X6694830Y2823260D01*
X6690359Y2837281D01*
X6684213Y2850692D01*
X6676440Y2863240D01*
X6667195Y2874772D01*
X6656578Y2885033D01*
X6644792Y2893923D01*
X6632041Y2901289D01*
X6623405Y2904947D01*
X6620154Y2907182D01*
X6617970Y2910433D01*
X6617208Y2914294D01*
X6617208Y3143605D01*
X6617970Y3147466D01*
X6620154Y3150717D01*
X6623405Y3152952D01*
X6632041Y3156610D01*
X6644792Y3163976D01*
X6656578Y3172866D01*
X6667195Y3183128D01*
X6676440Y3194659D01*
X6684213Y3207207D01*
X6690359Y3220618D01*
X6694830Y3234639D01*
X6697573Y3249168D01*
X6698488Y3263900D01*
X6697573Y3278632D01*
X6694830Y3293160D01*
X6690359Y3307181D01*
X6684213Y3320592D01*
X6676440Y3333140D01*
X6667195Y3344672D01*
X6656578Y3354933D01*
X6644792Y3363823D01*
X6632041Y3371189D01*
X6618427Y3376929D01*
X6604253Y3380994D01*
X6589674Y3383279D01*
X6574891Y3383686D01*
X6560210Y3382365D01*
X6545783Y3379215D01*
X6531864Y3374288D01*
X6518656Y3367684D01*
X6506362Y3359556D01*
X6495135Y3349955D01*
X6485229Y3339033D01*
X6476695Y3326993D01*
X6469684Y3313988D01*
X6464350Y3300222D01*
X6460794Y3285947D01*
X6458966Y3271265D01*
X6458966Y3256534D01*
X6460794Y3241852D01*
X6464350Y3227578D01*
X6469684Y3213811D01*
X6476695Y3200806D01*
X6485229Y3188766D01*
X6495135Y3177844D01*
X6506362Y3168243D01*
X6518656Y3160115D01*
X6536740Y3150920D01*
X6539128Y3147517D01*
X6539992Y3143453D01*
X6539992Y2914446D01*
X6539128Y2910382D01*
X6536740Y2906979D01*
X6518656Y2897784D01*
X6506362Y2889656D01*
X6495135Y2880055D01*
X6485229Y2869133D01*
X6476695Y2857093D01*
X6469684Y2844088D01*
X6464350Y2830322D01*
X6460794Y2816047D01*
X6458966Y2801366D01*
X6458966Y2786634D01*
X6460794Y2771952D01*
X6464350Y2757678D01*
X6469684Y2743911D01*
X6476695Y2730906D01*
X6485229Y2718866D01*
X6495135Y2707944D01*
X6506362Y2698343D01*
X6518656Y2690215D01*
X6531864Y2683611D01*
X6545783Y2678684D01*
X6560210Y2675534D01*
G37*
G36*
X7345934Y2685237D02*
G01*
X7414514Y2685237D01*
X7413548Y2687421D01*
X7405725Y2700426D01*
X7396327Y2712364D01*
X7385558Y2723134D01*
X7373620Y2732481D01*
X7360615Y2740355D01*
X7346696Y2746654D01*
X7345934Y2747162D01*
G37*
G36*
X7139686Y2685237D02*
G01*
X7208266Y2685237D01*
X7208266Y2747162D01*
X7207503Y2746654D01*
X7193584Y2740355D01*
X7180580Y2732481D01*
X7168642Y2723134D01*
X7157872Y2712364D01*
X7148474Y2700426D01*
X7140651Y2687421D01*
G37*
G36*
X7252411Y2756966D02*
G01*
X7301788Y2756966D01*
X7317282Y2757932D01*
X7332776Y2760827D01*
X7336536Y2761284D01*
X7340193Y2760319D01*
X7341412Y2759710D01*
X7343546Y2762961D01*
X7346696Y2765145D01*
X7360615Y2771444D01*
X7377226Y2781452D01*
X7380579Y2782011D01*
X7552944Y2782011D01*
X7566456Y2782874D01*
X7579410Y2785465D01*
X7591907Y2789682D01*
X7603744Y2795524D01*
X7614716Y2802839D01*
X7624876Y2811780D01*
X8106714Y3293618D01*
X8108594Y3295091D01*
X8110778Y3296107D01*
X8119872Y3299053D01*
X8133029Y3305251D01*
X8145322Y3313074D01*
X8156549Y3322320D01*
X8166506Y3332937D01*
X8175040Y3344722D01*
X8182051Y3357473D01*
X8187436Y3370986D01*
X8191042Y3385108D01*
X8192871Y3399536D01*
X8192871Y3414064D01*
X8191042Y3428542D01*
X8187436Y3442614D01*
X8182051Y3456127D01*
X8175040Y3468878D01*
X8166506Y3480663D01*
X8156549Y3491280D01*
X8145322Y3500577D01*
X8133029Y3508349D01*
X8119872Y3514547D01*
X8106003Y3519068D01*
X8091728Y3521760D01*
X8077200Y3522675D01*
X8062671Y3521760D01*
X8048396Y3519068D01*
X8034528Y3514547D01*
X8021370Y3508349D01*
X8009077Y3500577D01*
X7997850Y3491280D01*
X7987893Y3480663D01*
X7979359Y3468878D01*
X7972348Y3456127D01*
X7966964Y3442614D01*
X7965490Y3438347D01*
X7963865Y3436162D01*
X7514488Y2986786D01*
X7511186Y2984601D01*
X7507274Y2983788D01*
X7380579Y2983788D01*
X7377226Y2984347D01*
X7364272Y2992120D01*
X7361123Y2995168D01*
X7359548Y2999181D01*
X7359751Y3003550D01*
X7361834Y3007410D01*
X7365288Y3010052D01*
X7369556Y3010966D01*
X7401509Y3010966D01*
X7407859Y3011728D01*
X7413294Y3013608D01*
X7418222Y3016707D01*
X7422286Y3020771D01*
X7425385Y3025698D01*
X7427315Y3031134D01*
X7428026Y3037484D01*
X7428026Y3236315D01*
X7427315Y3242665D01*
X7425385Y3248101D01*
X7422286Y3253028D01*
X7418222Y3257092D01*
X7413294Y3260191D01*
X7407859Y3262071D01*
X7401509Y3262782D01*
X7152690Y3262782D01*
X7146340Y3262071D01*
X7140905Y3260191D01*
X7135977Y3257092D01*
X7131913Y3253028D01*
X7128814Y3248101D01*
X7126884Y3242665D01*
X7126173Y3236315D01*
X7126173Y3037484D01*
X7126884Y3031134D01*
X7128814Y3025698D01*
X7131913Y3020771D01*
X7135977Y3016707D01*
X7140905Y3013608D01*
X7146340Y3011728D01*
X7152690Y3010966D01*
X7184644Y3010966D01*
X7188911Y3010052D01*
X7192365Y3007410D01*
X7194448Y3003550D01*
X7194651Y2999181D01*
X7193076Y2995168D01*
X7189927Y2992120D01*
X7180580Y2986481D01*
X7168642Y2977134D01*
X7157872Y2966364D01*
X7148474Y2954426D01*
X7140651Y2941421D01*
X7134402Y2927553D01*
X7129881Y2913024D01*
X7127138Y2898089D01*
X7126224Y2882900D01*
X7127138Y2867710D01*
X7129881Y2852775D01*
X7134402Y2838246D01*
X7140651Y2824378D01*
X7148474Y2811373D01*
X7157872Y2799435D01*
X7168642Y2788666D01*
X7180580Y2779318D01*
X7193584Y2771444D01*
X7207503Y2765145D01*
X7210653Y2762961D01*
X7212838Y2759405D01*
X7214006Y2760319D01*
X7217664Y2761284D01*
X7221981Y2760675D01*
X7236917Y2757932D01*
G37*
G36*
X3075940Y3004159D02*
G01*
X3088792Y3011576D01*
X3100578Y3020466D01*
X3111195Y3030728D01*
X3120440Y3042259D01*
X3128213Y3054807D01*
X3129737Y3058160D01*
X3075940Y3058160D01*
G37*
G36*
X2969260Y3004413D02*
G01*
X2969260Y3058160D01*
X2915462Y3058160D01*
X2920695Y3048406D01*
X2929229Y3036366D01*
X2939135Y3025444D01*
X2950362Y3015843D01*
X2962656Y3007715D01*
G37*
G36*
X3406140Y3016859D02*
G01*
X3418992Y3024276D01*
X3430778Y3033166D01*
X3441395Y3043428D01*
X3450640Y3054959D01*
X3458413Y3067507D01*
X3459937Y3070860D01*
X3406140Y3070860D01*
G37*
G36*
X4523740Y3029559D02*
G01*
X4536592Y3036976D01*
X4548378Y3045866D01*
X4558995Y3056128D01*
X4568240Y3067659D01*
X4576013Y3080207D01*
X4577537Y3083560D01*
X4523740Y3083560D01*
G37*
G36*
X4417060Y3029813D02*
G01*
X4417060Y3083560D01*
X4363262Y3083560D01*
X4368495Y3073806D01*
X4377029Y3061766D01*
X4386935Y3050844D01*
X4398162Y3041243D01*
X4410456Y3033115D01*
G37*
G36*
X5763260Y3156813D02*
G01*
X5763260Y3210560D01*
X5709462Y3210560D01*
X5714695Y3200806D01*
X5723229Y3188766D01*
X5733135Y3177844D01*
X5744362Y3168243D01*
X5756656Y3160115D01*
G37*
G36*
X2915462Y3164840D02*
G01*
X2969260Y3164840D01*
X2969260Y3218586D01*
X2962656Y3215284D01*
X2950362Y3207156D01*
X2939135Y3197555D01*
X2929229Y3186633D01*
X2920695Y3174593D01*
G37*
G36*
X3075940Y3164840D02*
G01*
X3129737Y3164840D01*
X3128213Y3168192D01*
X3120440Y3180740D01*
X3111195Y3192272D01*
X3100578Y3202533D01*
X3088792Y3211423D01*
X3075940Y3218840D01*
G37*
G36*
X3406140Y3177540D02*
G01*
X3459937Y3177540D01*
X3458413Y3180892D01*
X3450640Y3193440D01*
X3441395Y3204972D01*
X3430778Y3215233D01*
X3418992Y3224123D01*
X3406140Y3231540D01*
G37*
G36*
X4523740Y3190240D02*
G01*
X4577537Y3190240D01*
X4576013Y3193592D01*
X4568240Y3206140D01*
X4558995Y3217672D01*
X4548378Y3227933D01*
X4536592Y3236823D01*
X4523740Y3244240D01*
G37*
G36*
X5709462Y3317240D02*
G01*
X5763260Y3317240D01*
X5763260Y3370986D01*
X5756656Y3367684D01*
X5744362Y3359556D01*
X5733135Y3349955D01*
X5723229Y3339033D01*
X5714695Y3326993D01*
G37*
G36*
X5228691Y3398062D02*
G01*
X5243474Y3398520D01*
X5258054Y3400806D01*
X5272227Y3404870D01*
X5285841Y3410610D01*
X5298592Y3417976D01*
X5310378Y3426866D01*
X5320995Y3437128D01*
X5330240Y3448659D01*
X5338013Y3461207D01*
X5344160Y3474618D01*
X5348630Y3488639D01*
X5351373Y3503168D01*
X5352288Y3517900D01*
X5351373Y3532632D01*
X5348630Y3547160D01*
X5344160Y3561181D01*
X5338013Y3574592D01*
X5330240Y3587140D01*
X5320995Y3598672D01*
X5310378Y3608933D01*
X5298592Y3617823D01*
X5285841Y3625189D01*
X5272227Y3630929D01*
X5258054Y3634994D01*
X5254193Y3635603D01*
X5250840Y3636772D01*
X5248046Y3639007D01*
X5246217Y3642106D01*
X5245608Y3645611D01*
X5245608Y3905300D01*
X5246319Y3908958D01*
X5248300Y3912158D01*
X5251297Y3914394D01*
X5261203Y3919270D01*
X5272989Y3927195D01*
X5283657Y3936542D01*
X5293004Y3947210D01*
X5300929Y3958996D01*
X5307177Y3971696D01*
X5311749Y3985158D01*
X5314492Y3999026D01*
X5315458Y4013200D01*
X5314492Y4027373D01*
X5311749Y4041241D01*
X5307177Y4054703D01*
X5300929Y4067403D01*
X5293004Y4079189D01*
X5283657Y4089857D01*
X5272989Y4099204D01*
X5261203Y4107129D01*
X5248503Y4113377D01*
X5235041Y4117949D01*
X5221173Y4120692D01*
X5207000Y4121658D01*
X5192826Y4120692D01*
X5178958Y4117949D01*
X5165496Y4113377D01*
X5152796Y4107129D01*
X5141010Y4099204D01*
X5130342Y4089857D01*
X5120995Y4079189D01*
X5113070Y4067403D01*
X5106822Y4054703D01*
X5102250Y4041241D01*
X5099507Y4027373D01*
X5098542Y4013200D01*
X5099507Y3999026D01*
X5102250Y3985158D01*
X5106822Y3971696D01*
X5113070Y3958996D01*
X5120995Y3947210D01*
X5130342Y3936542D01*
X5141010Y3927195D01*
X5152796Y3919270D01*
X5162702Y3914394D01*
X5165699Y3912158D01*
X5167680Y3908958D01*
X5168392Y3905300D01*
X5168392Y3624478D01*
X5167833Y3621176D01*
X5166258Y3618280D01*
X5163820Y3615994D01*
X5160162Y3613556D01*
X5148935Y3603955D01*
X5139029Y3593033D01*
X5130495Y3580993D01*
X5123484Y3567988D01*
X5118150Y3554222D01*
X5114594Y3539947D01*
X5112766Y3525265D01*
X5112766Y3510534D01*
X5114594Y3495852D01*
X5118150Y3481578D01*
X5123484Y3467811D01*
X5130495Y3454806D01*
X5139029Y3442766D01*
X5148935Y3431844D01*
X5160162Y3422243D01*
X5172456Y3414115D01*
X5185664Y3407511D01*
X5199583Y3402584D01*
X5214010Y3399434D01*
G37*
G36*
X6562191Y3639362D02*
G01*
X6576974Y3639820D01*
X6591553Y3642106D01*
X6605727Y3646170D01*
X6619341Y3651910D01*
X6632092Y3659276D01*
X6643878Y3668166D01*
X6654495Y3678428D01*
X6663740Y3689959D01*
X6671513Y3702507D01*
X6677659Y3715918D01*
X6682130Y3729939D01*
X6684873Y3744468D01*
X6685788Y3759200D01*
X6684873Y3773932D01*
X6682130Y3788460D01*
X6677659Y3802481D01*
X6671513Y3815892D01*
X6663740Y3828440D01*
X6654495Y3839972D01*
X6643878Y3850233D01*
X6632092Y3859123D01*
X6619341Y3866489D01*
X6610705Y3870147D01*
X6607454Y3872382D01*
X6605270Y3875633D01*
X6604508Y3879494D01*
X6604508Y4159605D01*
X6605270Y4163466D01*
X6607454Y4166717D01*
X6610705Y4168952D01*
X6619341Y4172610D01*
X6632092Y4179976D01*
X6643878Y4188866D01*
X6654495Y4199128D01*
X6663740Y4210659D01*
X6671513Y4223207D01*
X6677659Y4236618D01*
X6682130Y4250639D01*
X6684873Y4265168D01*
X6685788Y4279900D01*
X6684873Y4294632D01*
X6682130Y4309160D01*
X6677659Y4323181D01*
X6671513Y4336592D01*
X6663740Y4349140D01*
X6654495Y4360672D01*
X6643878Y4370933D01*
X6632092Y4379823D01*
X6619341Y4387189D01*
X6605727Y4392930D01*
X6591553Y4396994D01*
X6576974Y4399280D01*
X6562191Y4399686D01*
X6547510Y4398365D01*
X6533083Y4395216D01*
X6519164Y4390288D01*
X6505956Y4383684D01*
X6493662Y4375556D01*
X6482435Y4365955D01*
X6472529Y4355033D01*
X6463995Y4342993D01*
X6456984Y4329988D01*
X6451650Y4316222D01*
X6448094Y4301947D01*
X6446266Y4287266D01*
X6446266Y4272534D01*
X6448094Y4257852D01*
X6451650Y4243578D01*
X6456984Y4229811D01*
X6463995Y4216806D01*
X6472529Y4204766D01*
X6482435Y4193844D01*
X6493662Y4184243D01*
X6505956Y4176115D01*
X6524040Y4166920D01*
X6526428Y4163517D01*
X6527292Y4159453D01*
X6527292Y3879646D01*
X6526428Y3875582D01*
X6524040Y3872179D01*
X6505956Y3862984D01*
X6493662Y3854856D01*
X6482435Y3845255D01*
X6472529Y3834333D01*
X6463995Y3822293D01*
X6456984Y3809288D01*
X6451650Y3795522D01*
X6448094Y3781247D01*
X6446266Y3766565D01*
X6446266Y3751834D01*
X6448094Y3737152D01*
X6451650Y3722878D01*
X6456984Y3709111D01*
X6463995Y3696106D01*
X6472529Y3684066D01*
X6482435Y3673144D01*
X6493662Y3663543D01*
X6505956Y3655415D01*
X6519164Y3648811D01*
X6533083Y3643884D01*
X6547510Y3640734D01*
G37*
G36*
X5750560Y3652113D02*
G01*
X5750560Y3705860D01*
X5696762Y3705860D01*
X5701995Y3696106D01*
X5710529Y3684066D01*
X5720435Y3673144D01*
X5731662Y3663543D01*
X5743956Y3655415D01*
G37*
G36*
X2760726Y3728415D02*
G01*
X2768142Y3732072D01*
X2777642Y3738778D01*
X2786024Y3746804D01*
X2793034Y3756050D01*
X2798419Y3765956D01*
X2760726Y3765956D01*
G37*
G36*
X5696762Y3812540D02*
G01*
X5750560Y3812540D01*
X5750560Y3866286D01*
X5743956Y3862984D01*
X5731662Y3854856D01*
X5720435Y3845255D01*
X5710529Y3834333D01*
X5701995Y3822293D01*
G37*
G36*
X2760726Y3828643D02*
G01*
X2798216Y3828643D01*
X2796032Y3833571D01*
X2789732Y3843274D01*
X2781960Y3851960D01*
X2773019Y3859377D01*
X2763012Y3865321D01*
X2760726Y3866235D01*
G37*
G36*
X8064500Y3830624D02*
G01*
X8079028Y3831539D01*
X8093303Y3834231D01*
X8107172Y3838752D01*
X8120329Y3844950D01*
X8132622Y3852722D01*
X8143849Y3862019D01*
X8153806Y3872636D01*
X8162340Y3884422D01*
X8169351Y3897172D01*
X8174736Y3910685D01*
X8178342Y3924757D01*
X8180171Y3939235D01*
X8180171Y3953764D01*
X8178342Y3968191D01*
X8174736Y3982313D01*
X8169351Y3995826D01*
X8162340Y4008577D01*
X8153806Y4020362D01*
X8143849Y4030979D01*
X8132622Y4040225D01*
X8120329Y4048048D01*
X8107172Y4054246D01*
X8093303Y4058716D01*
X8079028Y4061460D01*
X8064500Y4062374D01*
X8049971Y4061460D01*
X8035696Y4058716D01*
X8021828Y4054246D01*
X8008670Y4048048D01*
X7996377Y4040225D01*
X7985150Y4030979D01*
X7975193Y4020362D01*
X7966659Y4008577D01*
X7959648Y3995826D01*
X7954264Y3982313D01*
X7950657Y3968191D01*
X7948828Y3953764D01*
X7948828Y3939235D01*
X7950657Y3924757D01*
X7954264Y3910685D01*
X7959648Y3897172D01*
X7966659Y3884422D01*
X7975193Y3872636D01*
X7985150Y3862019D01*
X7996377Y3852722D01*
X8008670Y3844950D01*
X8021828Y3838752D01*
X8035696Y3834231D01*
X8049971Y3831539D01*
G37*
G36*
X7345934Y3996842D02*
G01*
X7360615Y4003344D01*
X7373620Y4011218D01*
X7385558Y4020565D01*
X7396327Y4031335D01*
X7405725Y4043273D01*
X7413548Y4056278D01*
X7414514Y4058462D01*
X7345934Y4058462D01*
G37*
G36*
X7208266Y3996842D02*
G01*
X7208266Y4058462D01*
X7139686Y4058462D01*
X7140651Y4056278D01*
X7148474Y4043273D01*
X7157872Y4031335D01*
X7168642Y4020565D01*
X7180580Y4011218D01*
X7193584Y4003344D01*
G37*
G36*
X5254650Y4170019D02*
G01*
X5261203Y4173270D01*
X5272989Y4181195D01*
X5283657Y4190542D01*
X5293004Y4201210D01*
X5300929Y4212996D01*
X5304180Y4219549D01*
X5254650Y4219549D01*
G37*
G36*
X5159400Y4170019D02*
G01*
X5159400Y4219549D01*
X5109819Y4219549D01*
X5113070Y4212996D01*
X5120995Y4201210D01*
X5130342Y4190542D01*
X5141010Y4181195D01*
X5152796Y4173270D01*
G37*
G36*
X7139686Y4171137D02*
G01*
X7208266Y4171137D01*
X7208266Y4233062D01*
X7207503Y4232554D01*
X7193584Y4226255D01*
X7180580Y4218381D01*
X7168642Y4209034D01*
X7157872Y4198264D01*
X7148474Y4186326D01*
X7140651Y4173321D01*
G37*
G36*
X7345934Y4171137D02*
G01*
X7414514Y4171137D01*
X7413548Y4173321D01*
X7405725Y4186326D01*
X7396327Y4198264D01*
X7385558Y4209034D01*
X7373620Y4218381D01*
X7360615Y4226255D01*
X7346696Y4232554D01*
X7345934Y4233062D01*
G37*
G36*
X7252411Y4242866D02*
G01*
X7301788Y4242866D01*
X7317282Y4243832D01*
X7332776Y4246727D01*
X7336536Y4247184D01*
X7340193Y4246219D01*
X7341412Y4245610D01*
X7343546Y4248861D01*
X7346696Y4251045D01*
X7360615Y4257344D01*
X7377226Y4267352D01*
X7380579Y4267911D01*
X7616444Y4267911D01*
X7629956Y4268774D01*
X7642910Y4271365D01*
X7655407Y4275582D01*
X7667244Y4281424D01*
X7678216Y4288739D01*
X7688376Y4297680D01*
X8094014Y4703318D01*
X8095894Y4704791D01*
X8098078Y4705807D01*
X8107172Y4708753D01*
X8120329Y4714951D01*
X8132622Y4722774D01*
X8143849Y4732020D01*
X8153806Y4742637D01*
X8162340Y4754422D01*
X8169351Y4767173D01*
X8174736Y4780686D01*
X8178342Y4794808D01*
X8180171Y4809236D01*
X8180171Y4823764D01*
X8178342Y4838242D01*
X8174736Y4852314D01*
X8169351Y4865827D01*
X8162340Y4878578D01*
X8153806Y4890363D01*
X8143849Y4900980D01*
X8132622Y4910277D01*
X8120329Y4918049D01*
X8107172Y4924247D01*
X8093303Y4928768D01*
X8079028Y4931460D01*
X8064500Y4932375D01*
X8049971Y4931460D01*
X8035696Y4928768D01*
X8021828Y4924247D01*
X8008670Y4918049D01*
X7996377Y4910277D01*
X7985150Y4900980D01*
X7975193Y4890363D01*
X7966659Y4878578D01*
X7959648Y4865827D01*
X7954264Y4852314D01*
X7952790Y4848047D01*
X7951165Y4845862D01*
X7577988Y4472686D01*
X7574686Y4470501D01*
X7570774Y4469688D01*
X7380579Y4469688D01*
X7377226Y4470247D01*
X7364272Y4478020D01*
X7361123Y4481068D01*
X7359548Y4485081D01*
X7359751Y4489450D01*
X7361834Y4493310D01*
X7365288Y4495952D01*
X7369556Y4496866D01*
X7401509Y4496866D01*
X7407859Y4497628D01*
X7413294Y4499508D01*
X7418222Y4502607D01*
X7422286Y4506671D01*
X7425385Y4511598D01*
X7427315Y4517034D01*
X7428026Y4523384D01*
X7428026Y4722215D01*
X7427315Y4728565D01*
X7425385Y4734001D01*
X7422286Y4738928D01*
X7418222Y4742992D01*
X7413294Y4746091D01*
X7407859Y4747971D01*
X7401509Y4748682D01*
X7152690Y4748682D01*
X7146340Y4747971D01*
X7140905Y4746091D01*
X7135977Y4742992D01*
X7131913Y4738928D01*
X7128814Y4734001D01*
X7126884Y4728565D01*
X7126173Y4722215D01*
X7126173Y4523384D01*
X7126884Y4517034D01*
X7128814Y4511598D01*
X7131913Y4506671D01*
X7135977Y4502607D01*
X7140905Y4499508D01*
X7146340Y4497628D01*
X7152690Y4496866D01*
X7184644Y4496866D01*
X7188911Y4495952D01*
X7192365Y4493310D01*
X7194448Y4489450D01*
X7194651Y4485081D01*
X7193076Y4481068D01*
X7189927Y4478020D01*
X7180580Y4472381D01*
X7168642Y4463034D01*
X7157872Y4452264D01*
X7148474Y4440326D01*
X7140651Y4427321D01*
X7134402Y4413453D01*
X7129881Y4398924D01*
X7127138Y4383989D01*
X7126224Y4368800D01*
X7127138Y4353610D01*
X7129881Y4338675D01*
X7134402Y4324146D01*
X7140651Y4310278D01*
X7148474Y4297273D01*
X7157872Y4285335D01*
X7168642Y4274566D01*
X7180580Y4265218D01*
X7193584Y4257344D01*
X7207503Y4251045D01*
X7210653Y4248861D01*
X7212838Y4245305D01*
X7214006Y4246219D01*
X7217664Y4247184D01*
X7221981Y4246575D01*
X7236917Y4243832D01*
G37*
G36*
X5254650Y4314799D02*
G01*
X5304180Y4314799D01*
X5300929Y4321403D01*
X5293004Y4333189D01*
X5283657Y4343857D01*
X5272989Y4353204D01*
X5261203Y4361129D01*
X5254650Y4364380D01*
G37*
G36*
X5109819Y4314799D02*
G01*
X5159400Y4314799D01*
X5159400Y4364380D01*
X5152796Y4361129D01*
X5141010Y4353204D01*
X5130342Y4343857D01*
X5120995Y4333189D01*
X5113070Y4321403D01*
G37*
G36*
X6562191Y4604562D02*
G01*
X6576974Y4605020D01*
X6591553Y4607306D01*
X6605727Y4611370D01*
X6619341Y4617110D01*
X6632092Y4624476D01*
X6643878Y4633366D01*
X6654495Y4643628D01*
X6663740Y4655159D01*
X6671513Y4667707D01*
X6677659Y4681118D01*
X6682130Y4695139D01*
X6684873Y4709668D01*
X6685788Y4724400D01*
X6684873Y4739132D01*
X6682130Y4753762D01*
X6681622Y4757420D01*
X6682536Y4761026D01*
X6684619Y4764024D01*
X7177938Y5257342D01*
X7181342Y5261102D01*
X7184339Y5264962D01*
X7186930Y5269077D01*
X7189216Y5273395D01*
X7191095Y5277916D01*
X7192518Y5282590D01*
X7193584Y5287314D01*
X7194245Y5292191D01*
X7194448Y5297271D01*
X7194448Y5343144D01*
X7195312Y5347208D01*
X7197699Y5350611D01*
X7201306Y5352745D01*
X7205421Y5353253D01*
X7209434Y5352084D01*
X7212634Y5349392D01*
X7214463Y5345684D01*
X7217664Y5333085D01*
X7223048Y5319572D01*
X7230059Y5306822D01*
X7238593Y5295036D01*
X7248550Y5284419D01*
X7259777Y5275122D01*
X7272070Y5267350D01*
X7285228Y5261152D01*
X7299096Y5256631D01*
X7313371Y5253939D01*
X7327900Y5253024D01*
X7342428Y5253939D01*
X7356703Y5256631D01*
X7370572Y5261152D01*
X7383729Y5267350D01*
X7396022Y5275122D01*
X7407249Y5284419D01*
X7417206Y5295036D01*
X7425740Y5306822D01*
X7432751Y5319572D01*
X7438136Y5333085D01*
X7441742Y5347157D01*
X7443571Y5361635D01*
X7443571Y5376164D01*
X7441742Y5390591D01*
X7438136Y5404713D01*
X7432751Y5418226D01*
X7425740Y5430977D01*
X7417206Y5442762D01*
X7407249Y5453380D01*
X7396022Y5462625D01*
X7383729Y5470448D01*
X7370572Y5476646D01*
X7356703Y5481116D01*
X7342428Y5483860D01*
X7327900Y5484774D01*
X7313371Y5483860D01*
X7299096Y5481116D01*
X7285228Y5476646D01*
X7272070Y5470448D01*
X7259777Y5462625D01*
X7248550Y5453380D01*
X7238593Y5442762D01*
X7230059Y5430977D01*
X7223048Y5418226D01*
X7217664Y5404713D01*
X7214463Y5392115D01*
X7212634Y5388356D01*
X7209434Y5385714D01*
X7205421Y5384495D01*
X7201306Y5385054D01*
X7197699Y5387187D01*
X7195312Y5390591D01*
X7194448Y5394655D01*
X7194448Y6213144D01*
X7195312Y6217208D01*
X7197699Y6220612D01*
X7201306Y6222746D01*
X7205421Y6223304D01*
X7209434Y6222085D01*
X7212634Y6219444D01*
X7214463Y6215684D01*
X7217664Y6203086D01*
X7223048Y6189573D01*
X7230059Y6176822D01*
X7238593Y6165037D01*
X7248550Y6154420D01*
X7259777Y6145174D01*
X7272070Y6137351D01*
X7285228Y6131153D01*
X7299096Y6126683D01*
X7313371Y6123940D01*
X7327900Y6123025D01*
X7342428Y6123940D01*
X7356703Y6126683D01*
X7370572Y6131153D01*
X7383729Y6137351D01*
X7396022Y6145174D01*
X7407249Y6154420D01*
X7417206Y6165037D01*
X7425740Y6176822D01*
X7432751Y6189573D01*
X7438136Y6203086D01*
X7441742Y6217208D01*
X7443571Y6231636D01*
X7443571Y6246164D01*
X7441742Y6260642D01*
X7438136Y6274714D01*
X7432751Y6288227D01*
X7425740Y6300978D01*
X7417206Y6312763D01*
X7407249Y6323380D01*
X7396022Y6332677D01*
X7383729Y6340449D01*
X7370572Y6346647D01*
X7356703Y6351168D01*
X7342428Y6353860D01*
X7327900Y6354775D01*
X7313371Y6353860D01*
X7299096Y6351168D01*
X7285228Y6346647D01*
X7272070Y6340449D01*
X7259777Y6332677D01*
X7248550Y6323380D01*
X7238593Y6312763D01*
X7230059Y6300978D01*
X7223048Y6288227D01*
X7217664Y6274714D01*
X7214463Y6262116D01*
X7212634Y6258407D01*
X7209434Y6255715D01*
X7205421Y6254546D01*
X7201306Y6255054D01*
X7197699Y6257188D01*
X7195312Y6260592D01*
X7194448Y6264656D01*
X7194448Y6942785D01*
X7195007Y6946036D01*
X7196531Y6948982D01*
X7202220Y6956450D01*
X7204659Y6960920D01*
X7207503Y6964222D01*
X7211466Y6966000D01*
X7215784Y6966000D01*
X7219696Y6964222D01*
X7222540Y6960920D01*
X7224979Y6956450D01*
X7232040Y6947204D01*
X7240371Y6939178D01*
X7249871Y6932472D01*
X7257288Y6928815D01*
X7257288Y6966356D01*
X7221829Y6966356D01*
X7217511Y6967321D01*
X7214006Y6970064D01*
X7212025Y6974027D01*
X7211872Y6978446D01*
X7213904Y6989013D01*
X7214362Y7000595D01*
X7213041Y7012127D01*
X7211923Y7016191D01*
X7211618Y7019899D01*
X7212634Y7023455D01*
X7214920Y7026402D01*
X7218070Y7028383D01*
X7221728Y7029043D01*
X7257288Y7029043D01*
X7257288Y7066635D01*
X7255002Y7065721D01*
X7244994Y7059777D01*
X7236053Y7052360D01*
X7228331Y7043674D01*
X7222134Y7034174D01*
X7219340Y7031278D01*
X7215631Y7029703D01*
X7211618Y7029703D01*
X7207910Y7031278D01*
X7205065Y7034174D01*
X7198918Y7043674D01*
X7191146Y7052360D01*
X7182205Y7059777D01*
X7172198Y7065721D01*
X7161428Y7070039D01*
X7150150Y7072680D01*
X7138568Y7073595D01*
X7126986Y7072680D01*
X7115657Y7070039D01*
X7104888Y7065721D01*
X7094880Y7059777D01*
X7085939Y7052360D01*
X7078218Y7043674D01*
X7071868Y7033971D01*
X7067143Y7023353D01*
X7064044Y7012127D01*
X7062724Y7000595D01*
X7063181Y6989013D01*
X7065365Y6977583D01*
X7069328Y6966661D01*
X7074865Y6956450D01*
X7080554Y6948982D01*
X7082078Y6946087D01*
X7082637Y6942836D01*
X7082637Y5324398D01*
X7081875Y5320538D01*
X7079640Y5317236D01*
X6605422Y4842967D01*
X6602475Y4840935D01*
X6599021Y4840020D01*
X6595465Y4840376D01*
X6591553Y4841494D01*
X6576974Y4843780D01*
X6562191Y4844186D01*
X6547510Y4842865D01*
X6533083Y4839716D01*
X6519164Y4834788D01*
X6505956Y4828184D01*
X6493662Y4820056D01*
X6482435Y4810455D01*
X6472529Y4799533D01*
X6463995Y4787493D01*
X6456984Y4774488D01*
X6451650Y4760722D01*
X6448094Y4746447D01*
X6446266Y4731766D01*
X6446266Y4717034D01*
X6448094Y4702352D01*
X6451650Y4688078D01*
X6456984Y4674311D01*
X6463995Y4661306D01*
X6472529Y4649266D01*
X6482435Y4638344D01*
X6493662Y4628743D01*
X6505956Y4620615D01*
X6519164Y4614011D01*
X6533083Y4609084D01*
X6547510Y4605934D01*
G37*
G36*
X5249926Y4680915D02*
G01*
X5257342Y4684572D01*
X5266842Y4691278D01*
X5275224Y4699304D01*
X5282234Y4708550D01*
X5287619Y4718456D01*
X5249926Y4718456D01*
G37*
G36*
X5249926Y4781143D02*
G01*
X5287416Y4781143D01*
X5285232Y4786071D01*
X5278932Y4795774D01*
X5271160Y4804460D01*
X5262219Y4811877D01*
X5252212Y4817821D01*
X5249926Y4818735D01*
G37*
G36*
X5803900Y5379212D02*
G01*
X5818632Y5380126D01*
X5833160Y5382869D01*
X5847181Y5387340D01*
X5860592Y5393486D01*
X5873140Y5401259D01*
X5884672Y5410504D01*
X5894933Y5421122D01*
X5903823Y5432907D01*
X5911189Y5445658D01*
X5916930Y5459272D01*
X5920994Y5473446D01*
X5923280Y5488025D01*
X5923737Y5502808D01*
X5922365Y5517489D01*
X5919216Y5531916D01*
X5914288Y5545836D01*
X5907684Y5559044D01*
X5899556Y5571337D01*
X5889955Y5582564D01*
X5879033Y5592470D01*
X5866993Y5601004D01*
X5853988Y5608015D01*
X5840222Y5613349D01*
X5825947Y5616905D01*
X5811266Y5618734D01*
X5796534Y5618734D01*
X5781852Y5616905D01*
X5767578Y5613349D01*
X5756960Y5609234D01*
X5753100Y5608523D01*
X5749340Y5609336D01*
X5746089Y5611520D01*
X5711545Y5646064D01*
X5709310Y5649366D01*
X5708548Y5653278D01*
X5708548Y6163056D01*
X5709259Y6166764D01*
X5711291Y6169964D01*
X5714339Y6172200D01*
X5717997Y6173165D01*
X5721756Y6172758D01*
X5725058Y6170980D01*
X5734659Y6163259D01*
X5747207Y6155486D01*
X5760618Y6149340D01*
X5774639Y6144869D01*
X5789168Y6142126D01*
X5803900Y6141212D01*
X5818632Y6142126D01*
X5833160Y6144869D01*
X5847181Y6149340D01*
X5860592Y6155486D01*
X5873140Y6163259D01*
X5884672Y6172504D01*
X5894933Y6183122D01*
X5903823Y6194907D01*
X5911189Y6207658D01*
X5916930Y6221272D01*
X5920994Y6235446D01*
X5923280Y6250025D01*
X5923737Y6264808D01*
X5922365Y6279489D01*
X5919216Y6293916D01*
X5914288Y6307836D01*
X5907684Y6321044D01*
X5899556Y6333337D01*
X5889955Y6344564D01*
X5879033Y6354470D01*
X5866993Y6363004D01*
X5853988Y6370015D01*
X5840222Y6375349D01*
X5825947Y6378905D01*
X5811266Y6380734D01*
X5796534Y6380734D01*
X5781852Y6378905D01*
X5767578Y6375349D01*
X5753811Y6370015D01*
X5740806Y6363004D01*
X5728766Y6354470D01*
X5725566Y6351574D01*
X5722213Y6349542D01*
X5718403Y6348933D01*
X5714593Y6349796D01*
X5711393Y6352032D01*
X5709310Y6355283D01*
X5708548Y6359093D01*
X5708548Y6802221D01*
X5709462Y6806488D01*
X5712104Y6809994D01*
X5715965Y6812025D01*
X5720334Y6812280D01*
X5724398Y6810654D01*
X5736996Y6802170D01*
X5743600Y6798919D01*
X5743600Y6848449D01*
X5718708Y6848449D01*
X5714796Y6849262D01*
X5711545Y6851446D01*
X5709310Y6854748D01*
X5708548Y6858609D01*
X5708548Y6933539D01*
X5709310Y6937451D01*
X5711545Y6940753D01*
X5714796Y6942937D01*
X5718708Y6943699D01*
X5743600Y6943699D01*
X5743600Y6993280D01*
X5736996Y6990029D01*
X5724398Y6981545D01*
X5720334Y6979920D01*
X5715965Y6980174D01*
X5712104Y6982206D01*
X5709462Y6985711D01*
X5708548Y6989978D01*
X5708548Y7008622D01*
X5709310Y7012533D01*
X5711545Y7015835D01*
X5742178Y7046468D01*
X5745276Y7048601D01*
X5748934Y7049465D01*
X5752642Y7048906D01*
X5763158Y7045350D01*
X5777026Y7042607D01*
X5791200Y7041642D01*
X5805373Y7042607D01*
X5819241Y7045350D01*
X5832703Y7049922D01*
X5845403Y7056170D01*
X5857189Y7064095D01*
X5867857Y7073442D01*
X5877204Y7084110D01*
X5885129Y7095896D01*
X5891377Y7108596D01*
X5895949Y7122058D01*
X5898692Y7135926D01*
X5899658Y7150100D01*
X5898692Y7164273D01*
X5895949Y7178141D01*
X5891377Y7191603D01*
X5885129Y7204303D01*
X5877204Y7216089D01*
X5867857Y7226757D01*
X5857189Y7236104D01*
X5845403Y7244029D01*
X5832703Y7250277D01*
X5819241Y7254849D01*
X5805373Y7257592D01*
X5791200Y7258558D01*
X5777026Y7257592D01*
X5763158Y7254849D01*
X5749696Y7250277D01*
X5736996Y7244029D01*
X5725210Y7236104D01*
X5714542Y7226757D01*
X5705195Y7216089D01*
X5697270Y7204303D01*
X5691022Y7191603D01*
X5686450Y7178141D01*
X5683707Y7164273D01*
X5682742Y7150100D01*
X5683707Y7135926D01*
X5686450Y7122058D01*
X5690006Y7111542D01*
X5690565Y7107834D01*
X5689701Y7104176D01*
X5687568Y7101078D01*
X5643016Y7056475D01*
X5637885Y7050278D01*
X5634329Y7043572D01*
X5632145Y7036358D01*
X5631332Y7028332D01*
X5631332Y5633567D01*
X5632145Y5625541D01*
X5634329Y5618327D01*
X5637885Y5611622D01*
X5643016Y5605424D01*
X5691378Y5557062D01*
X5693511Y5553913D01*
X5694324Y5550204D01*
X5693765Y5546496D01*
X5688584Y5531916D01*
X5685434Y5517489D01*
X5684113Y5502808D01*
X5684520Y5488025D01*
X5686806Y5473446D01*
X5690870Y5459272D01*
X5696610Y5445658D01*
X5703976Y5432907D01*
X5712866Y5421122D01*
X5723128Y5410504D01*
X5734659Y5401259D01*
X5747207Y5393486D01*
X5760618Y5387340D01*
X5774639Y5382869D01*
X5789168Y5380126D01*
G37*
G36*
X8121192Y5459730D02*
G01*
X8134807Y5459730D01*
X8148320Y5461558D01*
X8161477Y5465165D01*
X8174024Y5470499D01*
X8185759Y5477459D01*
X8196478Y5485892D01*
X8205978Y5495696D01*
X8214055Y5506669D01*
X8220608Y5518607D01*
X8225485Y5531358D01*
X8228685Y5544616D01*
X8230006Y5558180D01*
X8229549Y5571794D01*
X8227314Y5585256D01*
X8223250Y5598312D01*
X8217509Y5610656D01*
X8210194Y5622137D01*
X8201406Y5632551D01*
X8191246Y5641695D01*
X8180019Y5649417D01*
X8167878Y5655564D01*
X8154974Y5660034D01*
X8141614Y5662777D01*
X8128000Y5663692D01*
X8114385Y5662777D01*
X8101025Y5660034D01*
X8088122Y5655564D01*
X8075980Y5649417D01*
X8064753Y5641695D01*
X8054594Y5632551D01*
X8045805Y5622137D01*
X8038490Y5610656D01*
X8032750Y5598312D01*
X8028686Y5585256D01*
X8026450Y5571794D01*
X8025993Y5558180D01*
X8027314Y5544616D01*
X8030514Y5531358D01*
X8035391Y5518607D01*
X8041944Y5506669D01*
X8050022Y5495696D01*
X8059521Y5485892D01*
X8070240Y5477459D01*
X8081975Y5470499D01*
X8094522Y5465165D01*
X8107680Y5461558D01*
G37*
G36*
X9163862Y5967323D02*
G01*
X9163862Y6023406D01*
X9107779Y6023406D01*
X9108744Y6021222D01*
X9116618Y6008217D01*
X9125966Y5996279D01*
X9136735Y5985510D01*
X9148673Y5976162D01*
X9161678Y5968288D01*
G37*
G36*
X8128000Y5969508D02*
G01*
X8141614Y5970422D01*
X8154974Y5973165D01*
X8167878Y5977636D01*
X8180019Y5983782D01*
X8191246Y5991504D01*
X8201406Y6000648D01*
X8210194Y6011062D01*
X8217509Y6022543D01*
X8223250Y6034887D01*
X8227314Y6047943D01*
X8229549Y6061405D01*
X8230006Y6075019D01*
X8228685Y6088583D01*
X8225485Y6101842D01*
X8220608Y6114592D01*
X8214055Y6126530D01*
X8205978Y6137503D01*
X8196478Y6147308D01*
X8185759Y6155740D01*
X8174024Y6162700D01*
X8161477Y6168034D01*
X8148320Y6171641D01*
X8134807Y6173470D01*
X8121192Y6173470D01*
X8107680Y6171641D01*
X8094522Y6168034D01*
X8081975Y6162700D01*
X8070240Y6155740D01*
X8059521Y6147308D01*
X8050022Y6137503D01*
X8041944Y6126530D01*
X8035391Y6114592D01*
X8030514Y6101842D01*
X8027314Y6088583D01*
X8025993Y6075019D01*
X8026450Y6061405D01*
X8028686Y6047943D01*
X8032750Y6034887D01*
X8038490Y6022543D01*
X8045805Y6011062D01*
X8054594Y6000648D01*
X8064753Y5991504D01*
X8075980Y5983782D01*
X8088122Y5977636D01*
X8101025Y5973165D01*
X8114385Y5970422D01*
G37*
G36*
X6667144Y6082792D02*
G01*
X6818426Y6082792D01*
X6824725Y6083503D01*
X6830212Y6085433D01*
X6835089Y6088481D01*
X6839203Y6092596D01*
X6842302Y6097473D01*
X6844182Y6102959D01*
X6844893Y6109258D01*
X6844893Y6260541D01*
X6844182Y6266840D01*
X6842302Y6272326D01*
X6839203Y6277203D01*
X6835089Y6281318D01*
X6830212Y6284366D01*
X6824725Y6286296D01*
X6818426Y6287008D01*
X6667144Y6287008D01*
X6660845Y6286296D01*
X6655358Y6284366D01*
X6650481Y6281318D01*
X6646367Y6277203D01*
X6643319Y6272326D01*
X6641388Y6266840D01*
X6640677Y6260541D01*
X6640677Y6229604D01*
X6639915Y6225743D01*
X6637731Y6222441D01*
X6634429Y6220206D01*
X6630568Y6219444D01*
X6626707Y6220206D01*
X6623405Y6222339D01*
X6621170Y6225641D01*
X6618935Y6230924D01*
X6611975Y6242659D01*
X6603542Y6253378D01*
X6593738Y6262878D01*
X6582714Y6270955D01*
X6570776Y6277508D01*
X6558076Y6282385D01*
X6544767Y6285585D01*
X6531203Y6286906D01*
X6517589Y6286449D01*
X6504127Y6284214D01*
X6491122Y6280150D01*
X6478727Y6274409D01*
X6467246Y6267094D01*
X6456832Y6258306D01*
X6447688Y6248146D01*
X6439966Y6236919D01*
X6433820Y6224778D01*
X6429857Y6213297D01*
X6427622Y6209639D01*
X6424117Y6207252D01*
X6419900Y6206490D01*
X6415786Y6207506D01*
X6412433Y6210147D01*
X6410452Y6213957D01*
X6409232Y6218377D01*
X6403898Y6230924D01*
X6396939Y6242659D01*
X6388506Y6253378D01*
X6378702Y6262878D01*
X6367729Y6270955D01*
X6355791Y6277508D01*
X6343040Y6282385D01*
X6329781Y6285585D01*
X6316218Y6286906D01*
X6302603Y6286449D01*
X6289141Y6284214D01*
X6276086Y6280150D01*
X6263741Y6274409D01*
X6252260Y6267094D01*
X6241846Y6258306D01*
X6232702Y6248146D01*
X6224981Y6236919D01*
X6218834Y6224778D01*
X6214364Y6211874D01*
X6211620Y6198514D01*
X6210706Y6184900D01*
X6211620Y6171285D01*
X6214364Y6157925D01*
X6218834Y6145022D01*
X6224981Y6132880D01*
X6232702Y6121654D01*
X6241846Y6111494D01*
X6252260Y6102705D01*
X6263741Y6095390D01*
X6276086Y6089650D01*
X6289141Y6085586D01*
X6302603Y6083350D01*
X6316218Y6082893D01*
X6329781Y6084214D01*
X6343040Y6087414D01*
X6355791Y6092291D01*
X6367729Y6098844D01*
X6378702Y6106922D01*
X6388506Y6116421D01*
X6396939Y6127140D01*
X6403898Y6138875D01*
X6409232Y6151422D01*
X6410452Y6155842D01*
X6412433Y6159652D01*
X6415786Y6162294D01*
X6419900Y6163310D01*
X6424117Y6162548D01*
X6427622Y6160160D01*
X6429857Y6156502D01*
X6433820Y6145022D01*
X6439966Y6132880D01*
X6447688Y6121654D01*
X6456832Y6111494D01*
X6467246Y6102705D01*
X6478727Y6095390D01*
X6491122Y6089650D01*
X6504127Y6085586D01*
X6517589Y6083350D01*
X6531203Y6082893D01*
X6544767Y6084214D01*
X6558076Y6087414D01*
X6570776Y6092291D01*
X6582714Y6098844D01*
X6593738Y6106922D01*
X6603542Y6116421D01*
X6611975Y6127140D01*
X6618935Y6138875D01*
X6621170Y6144158D01*
X6623405Y6147460D01*
X6626707Y6149594D01*
X6630568Y6150356D01*
X6634429Y6149594D01*
X6637731Y6147358D01*
X6639915Y6144056D01*
X6640677Y6140196D01*
X6640677Y6109258D01*
X6641388Y6102959D01*
X6643319Y6097473D01*
X6646367Y6092596D01*
X6650481Y6088481D01*
X6655358Y6085433D01*
X6660845Y6083503D01*
G37*
G36*
X9107779Y6136081D02*
G01*
X9163862Y6136081D01*
X9163862Y6192164D01*
X9161678Y6191199D01*
X9148673Y6183325D01*
X9136735Y6173978D01*
X9125966Y6163208D01*
X9116618Y6151270D01*
X9108744Y6138265D01*
G37*
G36*
X4324553Y6137351D02*
G01*
X4336846Y6137351D01*
X4348937Y6139078D01*
X4360722Y6142532D01*
X4371848Y6147612D01*
X4382160Y6154267D01*
X4391710Y6162497D01*
X4426813Y6197600D01*
X4430115Y6199835D01*
X4433976Y6200597D01*
X4520844Y6200597D01*
X4528261Y6201003D01*
X4534255Y6200597D01*
X5016144Y6200597D01*
X5028742Y6201511D01*
X5040680Y6204102D01*
X5052161Y6208369D01*
X5062931Y6214262D01*
X5072735Y6221577D01*
X5081422Y6230264D01*
X5088737Y6240068D01*
X5094630Y6250838D01*
X5098897Y6262319D01*
X5101488Y6274257D01*
X5102402Y6286500D01*
X5101488Y6298742D01*
X5098897Y6310680D01*
X5094630Y6322161D01*
X5088737Y6332931D01*
X5081422Y6342735D01*
X5072735Y6351422D01*
X5062931Y6358737D01*
X5052161Y6364630D01*
X5040680Y6368897D01*
X5028742Y6371488D01*
X5016144Y6372402D01*
X4534255Y6372402D01*
X4526838Y6371996D01*
X4520844Y6372402D01*
X4394403Y6372402D01*
X4388053Y6372199D01*
X4381957Y6371539D01*
X4375962Y6370421D01*
X4370019Y6368897D01*
X4364177Y6366967D01*
X4358538Y6364630D01*
X4353052Y6361887D01*
X4347768Y6358788D01*
X4342739Y6355283D01*
X4337964Y6351422D01*
X4333341Y6347104D01*
X4270197Y6284010D01*
X4261967Y6274460D01*
X4255312Y6264148D01*
X4250232Y6253022D01*
X4246778Y6241237D01*
X4245051Y6229146D01*
X4245051Y6216853D01*
X4246778Y6204762D01*
X4250232Y6192977D01*
X4255312Y6181852D01*
X4261967Y6171539D01*
X4269994Y6162294D01*
X4279239Y6154267D01*
X4289552Y6147612D01*
X4300677Y6142532D01*
X4312462Y6139078D01*
G37*
G36*
X2019655Y6390284D02*
G01*
X2034184Y6390284D01*
X2048611Y6392113D01*
X2062734Y6395720D01*
X2076246Y6401104D01*
X2088997Y6408115D01*
X2100783Y6416649D01*
X2111400Y6426606D01*
X2120696Y6437833D01*
X2128469Y6450126D01*
X2134666Y6463284D01*
X2139188Y6477152D01*
X2141880Y6491427D01*
X2142794Y6505956D01*
X2141880Y6520484D01*
X2141016Y6525107D01*
X2140915Y6528409D01*
X2141880Y6531559D01*
X2143810Y6534200D01*
X2634437Y7024878D01*
X2637586Y7027011D01*
X2641295Y7027824D01*
X2645003Y7027265D01*
X2659583Y7022084D01*
X2674010Y7018934D01*
X2688691Y7017562D01*
X2703474Y7018020D01*
X2718054Y7020306D01*
X2732227Y7024370D01*
X2745841Y7030110D01*
X2758592Y7037476D01*
X2770378Y7046366D01*
X2780995Y7056628D01*
X2790240Y7068159D01*
X2798013Y7080707D01*
X2804160Y7094118D01*
X2808630Y7108139D01*
X2811373Y7122668D01*
X2812288Y7137400D01*
X2811373Y7152131D01*
X2808630Y7166660D01*
X2804160Y7180681D01*
X2798013Y7194092D01*
X2790240Y7206640D01*
X2780995Y7218172D01*
X2770378Y7228433D01*
X2758592Y7237323D01*
X2745841Y7244689D01*
X2732227Y7250430D01*
X2718054Y7254494D01*
X2703474Y7256780D01*
X2688691Y7257186D01*
X2674010Y7255865D01*
X2659583Y7252716D01*
X2645664Y7247788D01*
X2632456Y7241184D01*
X2620162Y7233056D01*
X2608935Y7223455D01*
X2599029Y7212533D01*
X2590495Y7200493D01*
X2583484Y7187488D01*
X2578150Y7173722D01*
X2574594Y7159447D01*
X2572766Y7144766D01*
X2572766Y7130034D01*
X2574594Y7115352D01*
X2578150Y7101078D01*
X2582265Y7090460D01*
X2582976Y7086600D01*
X2582164Y7082840D01*
X2579979Y7079589D01*
X2103932Y6603542D01*
X2101037Y6601510D01*
X2097582Y6600596D01*
X2094026Y6600952D01*
X2090775Y6602526D01*
X2088997Y6603796D01*
X2076246Y6610807D01*
X2062734Y6616192D01*
X2048611Y6619798D01*
X2034184Y6621627D01*
X2019655Y6621627D01*
X2005228Y6619798D01*
X1991106Y6616192D01*
X1977593Y6610807D01*
X1964842Y6603796D01*
X1953056Y6595262D01*
X1942439Y6585305D01*
X1933143Y6574078D01*
X1925370Y6561785D01*
X1919173Y6548628D01*
X1914652Y6534759D01*
X1911959Y6520484D01*
X1911045Y6505956D01*
X1911959Y6491427D01*
X1914652Y6477152D01*
X1919173Y6463284D01*
X1925370Y6450126D01*
X1933143Y6437833D01*
X1942439Y6426606D01*
X1953056Y6416649D01*
X1964842Y6408115D01*
X1977593Y6401104D01*
X1991106Y6395720D01*
X2005228Y6392113D01*
G37*
G36*
X4361840Y6456781D02*
G01*
X4368444Y6459982D01*
X4377791Y6466332D01*
X4386122Y6474053D01*
X4393184Y6482943D01*
X4398873Y6492748D01*
X4402988Y6503314D01*
X4405528Y6514388D01*
X4406087Y6521805D01*
X4361840Y6521805D01*
G37*
G36*
X5225846Y6456781D02*
G01*
X5232450Y6459982D01*
X5241798Y6466332D01*
X5250129Y6474053D01*
X5257190Y6482943D01*
X5262880Y6492748D01*
X5266994Y6503314D01*
X5269534Y6514388D01*
X5270093Y6521805D01*
X5225846Y6521805D01*
G37*
G36*
X5163159Y6456781D02*
G01*
X5163159Y6521805D01*
X5118912Y6521805D01*
X5119471Y6514388D01*
X5122011Y6503314D01*
X5126126Y6492748D01*
X5131816Y6482943D01*
X5138877Y6474053D01*
X5147208Y6466332D01*
X5156555Y6459982D01*
G37*
G36*
X4299153Y6456781D02*
G01*
X4299153Y6521805D01*
X4254906Y6521805D01*
X4255465Y6514388D01*
X4258005Y6503314D01*
X4262120Y6492748D01*
X4267809Y6482943D01*
X4274870Y6474053D01*
X4283202Y6466332D01*
X4292549Y6459982D01*
G37*
G36*
X5053990Y6575399D02*
G01*
X5063794Y6576669D01*
X5073243Y6579565D01*
X5082082Y6584035D01*
X5090058Y6589877D01*
X5096916Y6597040D01*
X5102453Y6605270D01*
X5106517Y6614261D01*
X5109057Y6623862D01*
X5109565Y6630212D01*
X5110581Y6633870D01*
X5112816Y6636867D01*
X5116017Y6638848D01*
X5119674Y6639509D01*
X5163159Y6639509D01*
X5163159Y6704584D01*
X5156555Y6701383D01*
X5147208Y6694982D01*
X5138877Y6687312D01*
X5131816Y6678422D01*
X5126126Y6668617D01*
X5122570Y6659524D01*
X5120436Y6656222D01*
X5117236Y6653987D01*
X5113375Y6653123D01*
X5109514Y6653784D01*
X5106162Y6655866D01*
X5103876Y6659067D01*
X5102453Y6662166D01*
X5096916Y6670395D01*
X5090058Y6677558D01*
X5082082Y6683400D01*
X5073243Y6687870D01*
X5063794Y6690766D01*
X5053990Y6692036D01*
X5044084Y6691630D01*
X5034432Y6689547D01*
X5025237Y6685838D01*
X5016804Y6680657D01*
X5009337Y6674103D01*
X5003139Y6666382D01*
X4998313Y6657746D01*
X4995011Y6648450D01*
X4993335Y6638645D01*
X4993335Y6628790D01*
X4995011Y6618986D01*
X4998313Y6609689D01*
X5003139Y6601053D01*
X5009337Y6593331D01*
X5016804Y6586778D01*
X5025237Y6581597D01*
X5034432Y6577888D01*
X5044084Y6575806D01*
G37*
G36*
X4475988Y6575399D02*
G01*
X4485792Y6576669D01*
X4495241Y6579565D01*
X4504080Y6584035D01*
X4512056Y6589877D01*
X4518914Y6597040D01*
X4524451Y6605270D01*
X4528515Y6614261D01*
X4531055Y6623862D01*
X4531868Y6633718D01*
X4531055Y6643573D01*
X4528515Y6653174D01*
X4524451Y6662166D01*
X4518914Y6670395D01*
X4512056Y6677558D01*
X4504080Y6683400D01*
X4495241Y6687870D01*
X4485792Y6690766D01*
X4475988Y6692036D01*
X4466082Y6691630D01*
X4456430Y6689547D01*
X4447235Y6685838D01*
X4438802Y6680657D01*
X4431334Y6674103D01*
X4425137Y6666382D01*
X4420666Y6658406D01*
X4418228Y6655511D01*
X4414875Y6653682D01*
X4411116Y6653225D01*
X4407458Y6654190D01*
X4404360Y6656476D01*
X4402378Y6659676D01*
X4398873Y6668617D01*
X4393184Y6678422D01*
X4386122Y6687261D01*
X4377791Y6694982D01*
X4368444Y6701383D01*
X4361840Y6704584D01*
X4361840Y6639509D01*
X4405172Y6639509D01*
X4409084Y6638747D01*
X4412386Y6636562D01*
X4414570Y6633260D01*
X4417009Y6618986D01*
X4420311Y6609689D01*
X4425137Y6601053D01*
X4431334Y6593331D01*
X4438802Y6586778D01*
X4447235Y6581597D01*
X4456430Y6577888D01*
X4466082Y6575806D01*
G37*
G36*
X5225846Y6639509D02*
G01*
X5270093Y6639509D01*
X5269534Y6646976D01*
X5266994Y6658051D01*
X5262880Y6668617D01*
X5257190Y6678422D01*
X5250129Y6687312D01*
X5241798Y6694982D01*
X5232450Y6701383D01*
X5225846Y6704584D01*
G37*
G36*
X4254906Y6639509D02*
G01*
X4299153Y6639509D01*
X4299153Y6704584D01*
X4292549Y6701383D01*
X4283202Y6694982D01*
X4274870Y6687261D01*
X4267809Y6678422D01*
X4262120Y6668617D01*
X4258005Y6658051D01*
X4255465Y6646976D01*
G37*
G36*
X8776258Y6715302D02*
G01*
X8814308Y6715302D01*
X8820658Y6716014D01*
X8826093Y6717893D01*
X8831021Y6720992D01*
X8835085Y6725107D01*
X8838184Y6729984D01*
X8840063Y6735419D01*
X8840774Y6741769D01*
X8840774Y6799834D01*
X8776258Y6799834D01*
G37*
G36*
X8635441Y6715302D02*
G01*
X8673541Y6715302D01*
X8673541Y6799834D01*
X8608974Y6799834D01*
X8608974Y6741769D01*
X8609685Y6735419D01*
X8611616Y6729984D01*
X8614664Y6725107D01*
X8618778Y6720992D01*
X8623655Y6717893D01*
X8629142Y6716014D01*
G37*
G36*
X8971635Y6715556D02*
G01*
X8986164Y6715556D01*
X9000591Y6717385D01*
X9014714Y6720992D01*
X9028226Y6726326D01*
X9040977Y6733336D01*
X9052763Y6741922D01*
X9063380Y6751878D01*
X9072626Y6763054D01*
X9080449Y6775348D01*
X9086646Y6788556D01*
X9091117Y6802374D01*
X9093860Y6816648D01*
X9094774Y6831533D01*
X9094774Y6910882D01*
X9093860Y6925716D01*
X9091117Y6939991D01*
X9086646Y6953859D01*
X9080449Y6967016D01*
X9072626Y6979310D01*
X9063380Y6990537D01*
X9052763Y7000494D01*
X9040977Y7009028D01*
X9028226Y7016038D01*
X9014714Y7021423D01*
X9000591Y7025030D01*
X8986164Y7026859D01*
X8971635Y7026859D01*
X8957157Y7025030D01*
X8943086Y7021423D01*
X8929522Y7016038D01*
X8916771Y7009028D01*
X8905036Y7000494D01*
X8894419Y6990537D01*
X8885123Y6979310D01*
X8877350Y6967016D01*
X8871153Y6953859D01*
X8866632Y6939991D01*
X8863888Y6925716D01*
X8862974Y6910882D01*
X8862974Y6831533D01*
X8863888Y6816648D01*
X8866632Y6802374D01*
X8871153Y6788556D01*
X8877350Y6775348D01*
X8885123Y6763054D01*
X8894419Y6751878D01*
X8905036Y6741922D01*
X8916771Y6733336D01*
X8929522Y6726326D01*
X8943086Y6720992D01*
X8957157Y6717385D01*
G37*
G36*
X5838850Y6798919D02*
G01*
X5845403Y6802170D01*
X5857189Y6810095D01*
X5867857Y6819442D01*
X5877204Y6830110D01*
X5885129Y6841896D01*
X5888380Y6848449D01*
X5838850Y6848449D01*
G37*
G36*
X1975561Y6852310D02*
G01*
X1975561Y6904685D01*
X1923237Y6904685D01*
X1925370Y6900214D01*
X1933143Y6887921D01*
X1942439Y6876694D01*
X1953056Y6866737D01*
X1964842Y6858203D01*
G37*
G36*
X2078278Y6852310D02*
G01*
X2088997Y6858203D01*
X2100783Y6866737D01*
X2111400Y6876694D01*
X2120696Y6887921D01*
X2128469Y6900214D01*
X2130602Y6904685D01*
X2078278Y6904685D01*
G37*
G36*
X4361840Y6889800D02*
G01*
X4368444Y6892950D01*
X4377791Y6899351D01*
X4386122Y6907072D01*
X4393184Y6915912D01*
X4398873Y6925767D01*
X4403039Y6936333D01*
X4405528Y6947306D01*
X4361840Y6947306D01*
G37*
G36*
X4299153Y6889800D02*
G01*
X4299153Y6947306D01*
X4255465Y6947306D01*
X4258005Y6936333D01*
X4262120Y6925767D01*
X4267809Y6915912D01*
X4274870Y6907072D01*
X4283202Y6899351D01*
X4292549Y6892950D01*
G37*
G36*
X5225846Y6889851D02*
G01*
X5232450Y6893001D01*
X5241798Y6899402D01*
X5250129Y6907123D01*
X5257190Y6915962D01*
X5262880Y6925818D01*
X5267045Y6936333D01*
X5269534Y6947357D01*
X5225846Y6947357D01*
G37*
G36*
X5163159Y6889851D02*
G01*
X5163159Y6947357D01*
X5119471Y6947357D01*
X5122011Y6936333D01*
X5126126Y6925818D01*
X5131816Y6915962D01*
X5138877Y6907123D01*
X5147208Y6899402D01*
X5156555Y6893001D01*
G37*
G36*
X7831226Y6896658D02*
G01*
X7842859Y6896658D01*
X7854340Y6898436D01*
X7865414Y6901942D01*
X7875828Y6907072D01*
X7885328Y6913778D01*
X7893710Y6921804D01*
X7900720Y6931050D01*
X7903159Y6935520D01*
X7906003Y6938822D01*
X7909966Y6940600D01*
X7914284Y6940600D01*
X7918196Y6938822D01*
X7921040Y6935520D01*
X7923479Y6931050D01*
X7930540Y6921804D01*
X7938871Y6913778D01*
X7948371Y6907072D01*
X7955788Y6903415D01*
X7955788Y6940956D01*
X7920329Y6940956D01*
X7916011Y6941921D01*
X7912506Y6944664D01*
X7910525Y6948627D01*
X7910372Y6953046D01*
X7912404Y6963613D01*
X7912862Y6975195D01*
X7911541Y6986727D01*
X7910423Y6990791D01*
X7910118Y6994499D01*
X7911134Y6998055D01*
X7913420Y7001002D01*
X7916570Y7002983D01*
X7920228Y7003643D01*
X7955788Y7003643D01*
X7955788Y7041235D01*
X7953502Y7040321D01*
X7943494Y7034377D01*
X7934553Y7026960D01*
X7926831Y7018274D01*
X7920634Y7008774D01*
X7917840Y7005878D01*
X7914131Y7004303D01*
X7910118Y7004303D01*
X7906410Y7005878D01*
X7903565Y7008774D01*
X7897418Y7018274D01*
X7889646Y7026960D01*
X7880705Y7034377D01*
X7870698Y7040321D01*
X7859928Y7044639D01*
X7848650Y7047280D01*
X7837068Y7048195D01*
X7825486Y7047280D01*
X7814157Y7044639D01*
X7803388Y7040321D01*
X7793380Y7034377D01*
X7784439Y7026960D01*
X7776718Y7018274D01*
X7770368Y7008571D01*
X7765643Y6997953D01*
X7762544Y6986727D01*
X7761224Y6975195D01*
X7761681Y6963613D01*
X7763865Y6952183D01*
X7767828Y6941261D01*
X7773365Y6931050D01*
X7780426Y6921804D01*
X7788757Y6913778D01*
X7798257Y6907072D01*
X7808671Y6901942D01*
X7819745Y6898436D01*
G37*
G36*
X8018525Y6903415D02*
G01*
X8025942Y6907072D01*
X8035442Y6913778D01*
X8043824Y6921804D01*
X8050834Y6931050D01*
X8056219Y6940956D01*
X8018525Y6940956D01*
G37*
G36*
X7320025Y6928815D02*
G01*
X7327442Y6932472D01*
X7336942Y6939178D01*
X7345324Y6947204D01*
X7352334Y6956450D01*
X7357719Y6966356D01*
X7320025Y6966356D01*
G37*
G36*
X6421526Y6934758D02*
G01*
X6433159Y6934758D01*
X6444640Y6936536D01*
X6455714Y6940042D01*
X6466128Y6945172D01*
X6475628Y6951878D01*
X6484010Y6959904D01*
X6491020Y6969150D01*
X6493459Y6973620D01*
X6496304Y6976922D01*
X6500266Y6978700D01*
X6504584Y6978700D01*
X6508496Y6976922D01*
X6511340Y6973620D01*
X6513779Y6969150D01*
X6520840Y6959904D01*
X6529171Y6951878D01*
X6538671Y6945172D01*
X6546088Y6941515D01*
X6546088Y6979056D01*
X6510629Y6979056D01*
X6506311Y6980021D01*
X6502806Y6982764D01*
X6500825Y6986727D01*
X6500672Y6991146D01*
X6502704Y7001713D01*
X6503162Y7013295D01*
X6501841Y7024827D01*
X6500723Y7028891D01*
X6500418Y7032599D01*
X6501434Y7036155D01*
X6503720Y7039102D01*
X6506870Y7041083D01*
X6510528Y7041743D01*
X6546088Y7041743D01*
X6546088Y7079335D01*
X6543802Y7078421D01*
X6533794Y7072477D01*
X6524853Y7065060D01*
X6517131Y7056374D01*
X6510934Y7046874D01*
X6508140Y7043978D01*
X6504431Y7042403D01*
X6500418Y7042403D01*
X6496710Y7043978D01*
X6493865Y7046874D01*
X6487718Y7056374D01*
X6479946Y7065060D01*
X6471005Y7072477D01*
X6460998Y7078421D01*
X6450228Y7082739D01*
X6438950Y7085380D01*
X6427368Y7086295D01*
X6415786Y7085380D01*
X6404457Y7082739D01*
X6393688Y7078421D01*
X6383680Y7072477D01*
X6374739Y7065060D01*
X6367018Y7056374D01*
X6360668Y7046671D01*
X6355943Y7036053D01*
X6352844Y7024827D01*
X6351524Y7013295D01*
X6351981Y7001713D01*
X6354165Y6990283D01*
X6358128Y6979361D01*
X6363665Y6969150D01*
X6370726Y6959904D01*
X6379057Y6951878D01*
X6388557Y6945172D01*
X6398971Y6940042D01*
X6410045Y6936536D01*
G37*
G36*
X6608825Y6941515D02*
G01*
X6616242Y6945172D01*
X6625742Y6951878D01*
X6634124Y6959904D01*
X6641134Y6969150D01*
X6646519Y6979056D01*
X6608825Y6979056D01*
G37*
G36*
X8608974Y6942531D02*
G01*
X8673541Y6942531D01*
X8673541Y7027113D01*
X8635441Y7027113D01*
X8629142Y7026402D01*
X8623655Y7024471D01*
X8618778Y7021423D01*
X8614664Y7017308D01*
X8611616Y7012431D01*
X8609685Y7006945D01*
X8608974Y7000646D01*
G37*
G36*
X8776258Y6942531D02*
G01*
X8840774Y6942531D01*
X8840774Y7000646D01*
X8840063Y7006945D01*
X8838184Y7012431D01*
X8835085Y7017308D01*
X8831021Y7021423D01*
X8826093Y7024471D01*
X8820658Y7026402D01*
X8814308Y7027113D01*
X8776258Y7027113D01*
G37*
G36*
X5838850Y6943699D02*
G01*
X5888380Y6943699D01*
X5885129Y6950303D01*
X5877204Y6962089D01*
X5867857Y6972757D01*
X5857189Y6982104D01*
X5845403Y6990029D01*
X5838850Y6993280D01*
G37*
G36*
X8018525Y7003643D02*
G01*
X8056016Y7003643D01*
X8053831Y7008571D01*
X8047532Y7018274D01*
X8039760Y7026960D01*
X8030819Y7034377D01*
X8020812Y7040321D01*
X8018525Y7041235D01*
G37*
G36*
X1923237Y7007402D02*
G01*
X1975561Y7007402D01*
X1975561Y7059777D01*
X1964842Y7053884D01*
X1953056Y7045350D01*
X1942439Y7035393D01*
X1933143Y7024166D01*
X1925370Y7011873D01*
G37*
G36*
X2078278Y7007402D02*
G01*
X2130602Y7007402D01*
X2128469Y7011873D01*
X2120696Y7024166D01*
X2111400Y7035393D01*
X2100783Y7045350D01*
X2088997Y7053884D01*
X2078278Y7059777D01*
G37*
G36*
X7320025Y7029043D02*
G01*
X7357516Y7029043D01*
X7355331Y7033971D01*
X7349032Y7043674D01*
X7341260Y7052360D01*
X7332319Y7059777D01*
X7322312Y7065721D01*
X7320025Y7066635D01*
G37*
G36*
X6608825Y7041743D02*
G01*
X6646316Y7041743D01*
X6644131Y7046671D01*
X6637832Y7056374D01*
X6630060Y7065060D01*
X6621119Y7072477D01*
X6611112Y7078421D01*
X6608825Y7079335D01*
G37*
G36*
X4361840Y7050024D02*
G01*
X4405528Y7050024D01*
X4403039Y7061047D01*
X4398873Y7071614D01*
X4393184Y7081418D01*
X4386122Y7090308D01*
X4377791Y7098030D01*
X4368444Y7104380D01*
X4361840Y7107580D01*
G37*
G36*
X4255465Y7050024D02*
G01*
X4299153Y7050024D01*
X4299153Y7107580D01*
X4292549Y7104380D01*
X4283202Y7098030D01*
X4274870Y7090308D01*
X4267809Y7081418D01*
X4262120Y7071614D01*
X4258005Y7061047D01*
G37*
G36*
X5225846Y7050074D02*
G01*
X5269534Y7050074D01*
X5267045Y7061098D01*
X5262880Y7071664D01*
X5257190Y7081469D01*
X5250129Y7090359D01*
X5241798Y7098030D01*
X5232450Y7104430D01*
X5225846Y7107631D01*
G37*
G36*
X5119471Y7050074D02*
G01*
X5163159Y7050074D01*
X5163159Y7107631D01*
X5156555Y7104430D01*
X5147208Y7098030D01*
X5138877Y7090359D01*
X5131816Y7081469D01*
X5126126Y7071664D01*
X5122011Y7061098D01*
G37*

%LPD*%
G36*
X889000Y6286500D02*
G01*
X889000Y4216400D01*
X1727200Y4216400D01*
X1739900Y4229100D01*
X1739900Y6286500D01*
G37*
D10*
X9207500Y4156455D02*
G01*
X9410700Y4359655D01*
X9410700Y6692392D01*
X9232900Y6870192D01*
D11*
X6565900Y4724400D02*
G01*
X7138543Y5297043D01*
X7138543Y6997700D01*
X3454400Y7137400D02*
G01*
X3454400Y6667500D01*
X3467100Y6654800D01*
X2260600Y2540000D02*
G01*
X2406700Y2393899D01*
X2840354Y2393899D01*
X3207410Y2760954D01*
X3207410Y3372510D01*
X3365500Y3530600D01*
X3365500Y3530600D02*
G01*
X3365500Y5552897D01*
X3805199Y5992596D01*
X4408043Y4140200D02*
G01*
X3983227Y4565014D01*
X3983227Y5820790D01*
X3811422Y5992596D01*
X3805199Y5992596D01*
X3805199Y5992596D02*
G01*
X3805199Y6316700D01*
X3467100Y6654800D01*
D10*
X9194800Y2695955D02*
G01*
X9381972Y2883128D01*
X9381972Y3981983D01*
X9207500Y4156455D01*
D12*
X1955800Y3086100D02*
G01*
X2579243Y3709543D01*
X2579243Y3797300D01*
D13*
X7277100Y4368800D02*
G01*
X7616799Y4368800D01*
X8064500Y4816500D01*
X7277100Y2882900D02*
G01*
X7553299Y2882900D01*
X8077200Y3406800D01*
D12*
X1193800Y3086100D02*
G01*
X1193800Y2921000D01*
X1562100Y2552700D01*
D14*
X2692400Y7137400D02*
G01*
X2060956Y6505955D01*
X2026920Y6505955D01*
X5803900Y5499100D02*
G01*
X5669940Y5633059D01*
X5669940Y7028840D01*
X5791200Y7150100D01*
X5232400Y3517900D02*
G01*
X5207000Y3543300D01*
X5207000Y4013200D01*
X6565900Y3759200D02*
G01*
X6565900Y4279900D01*
X6578600Y2794000D02*
G01*
X6578600Y3263900D01*
X5803900Y4724400D02*
G01*
X5954725Y4573574D01*
X5954725Y3213684D01*
X5496153Y2755112D01*
X5400598Y2755112D01*
X5232400Y2586913D01*
X5232400Y2502306D01*
X5164785Y2434691D01*
X4969408Y2434691D01*
X4851400Y2552700D01*
X5194503Y6998715D02*
G01*
X5194503Y6580682D01*
X5194498Y6580682D01*
X4330501Y6998667D02*
G01*
X4330501Y6580682D01*
X4330496Y6580682D01*
X4470400Y3136900D02*
G01*
X4597400Y3009900D01*
X4597400Y2552700D01*
X5816600Y3263900D02*
G01*
X5803900Y3276600D01*
X5803900Y3759200D01*
X3352800Y3124200D02*
G01*
X3441700Y3035300D01*
X3441700Y2552700D01*
X7277100Y2628900D02*
G01*
X7098944Y2807055D01*
X7098944Y3936644D01*
X7277100Y4114800D01*
X9220200Y6079744D02*
G01*
X8724900Y6575044D01*
X8724900Y6871208D01*
X5218556Y4267200D02*
G01*
X5207000Y4267200D01*
X5803900Y3759200D02*
G01*
X5726556Y3759200D01*
X5218556Y4267200D01*
X1237005Y3419855D02*
G01*
X1816100Y2840761D01*
X1816100Y2552700D01*
X4558156Y4762500D02*
G01*
X4558156Y4140200D01*
X2729356Y3797300D02*
G01*
X3022600Y3504056D01*
X3022600Y3111500D01*
X5218556Y4267200D02*
G01*
X5218556Y4749800D01*
X7987156Y6972300D02*
G01*
X7895996Y7063460D01*
X7354417Y7063460D01*
X7288656Y6997700D01*
X3898950Y3450183D02*
G01*
X4047083Y3450183D01*
X4127500Y3530600D01*
X4882641Y5298947D02*
G01*
X4882641Y3486657D01*
X5232400Y3136900D01*
D10*
X5068443Y4749800D02*
G01*
X5068443Y5276519D01*
X4493869Y5851093D01*
X4461179Y5851093D01*
D14*
X3902583Y5787389D02*
G01*
X3902583Y4085717D01*
X4470400Y3517900D01*
D12*
X2514600Y2540000D02*
G01*
X2514600Y2857500D01*
X2260600Y3111500D01*
X2260600Y3111500D02*
G01*
X2660370Y3511270D01*
X2660370Y3709746D01*
D14*
X3971010Y5975578D02*
G01*
X4592218Y5354370D01*
X4641037Y5354370D01*
X4641037Y5354370D02*
G01*
X4644567Y5354370D01*
X4641037Y5354370D02*
G01*
X4641037Y3507511D01*
X4246168Y3112643D01*
X4246168Y2777388D01*
X4076700Y2607919D01*
X4076700Y2502306D01*
X4009085Y2434691D01*
X3813708Y2434691D01*
X3695700Y2552700D01*
X3949700Y2552700D02*
G01*
X3808729Y2693670D01*
X3808729Y5869812D01*
D10*
X4533900Y6286500D02*
G01*
X4533900Y6286500D01*
X5016500Y6286500D01*
X4521200Y6286500D02*
G01*
X4394200Y6286500D01*
X4330700Y6223000D01*
D14*
X5105400Y2552700D02*
G01*
X4757927Y2900171D01*
X4757927Y5416042D01*
X3988308Y6185662D01*
X3988308Y6809994D01*
X3533902Y7264400D01*
X3314700Y7264400D01*
X2705100Y6654800D01*
X5218559Y4749800D02*
G01*
X5218559Y6556626D01*
X5194503Y6580682D01*
D16*
G01*
X7987156Y6972300D03*
G01*
X7837043Y6972300D03*
G01*
X7288656Y6997700D03*
G01*
X7138543Y6997700D03*
G01*
X6577456Y7010400D03*
G01*
X6427343Y7010400D03*
G01*
X4558156Y4140200D03*
G01*
X4408043Y4140200D03*
G01*
X2729356Y3797300D03*
G01*
X2579243Y3797300D03*
G01*
X4558156Y4762500D03*
G01*
X4408043Y4762500D03*
G01*
X5218556Y4749800D03*
G01*
X5068443Y4749800D03*
D17*
G01*
X7327900Y6238900D03*
G01*
X7327900Y5368899D03*
G01*
X8064500Y3946499D03*
G01*
X8064500Y4816500D03*
G01*
X8077200Y2536799D03*
G01*
X8077200Y3406800D03*
D18*
G01*
X8128000Y6071590D03*
G01*
X8128000Y5561609D03*
D19*
G01*
X4203700Y2552700D03*
G01*
X3949700Y2552700D03*
G01*
X3695700Y2552700D03*
D20*
G01*
X3441700Y2552700D03*
D19*
G01*
X5359400Y2552700D03*
G01*
X5105400Y2552700D03*
G01*
X4851400Y2552700D03*
D20*
G01*
X4597400Y2552700D03*
D17*
G01*
X1816100Y2552700D03*
G01*
X1562100Y2552700D03*
D21*
G01*
X1308100Y2552700D03*
D17*
G01*
X2768600Y2540000D03*
G01*
X2514600Y2540000D03*
D21*
G01*
X2260600Y2540000D03*
D17*
G01*
X1237005Y3869944D03*
G01*
X1237005Y3419855D03*
G01*
X1887245Y3869944D03*
G01*
X1887245Y3419855D03*
G01*
X1376705Y6956044D03*
G01*
X1376705Y6505955D03*
G01*
X2026920Y6956044D03*
G01*
X2026920Y6505955D03*
D22*
G01*
X5791200Y7150100D03*
G01*
X5791200Y6896100D03*
G01*
X5207000Y4013200D03*
G01*
X5207000Y4267200D03*
D23*
G01*
X9220200Y5578855D03*
G01*
X9220200Y6079744D03*
G01*
X9207500Y4156455D03*
G01*
X9207500Y4657344D03*
G01*
X9194800Y2695955D03*
G01*
X9194800Y3196844D03*
D24*
G01*
X7277100Y4622800D03*
D25*
G01*
X7277100Y4114800D03*
G01*
X7277100Y4368800D03*
D24*
G01*
X7277100Y3136900D03*
D25*
G01*
X7277100Y2628900D03*
G01*
X7277100Y2882900D03*
D26*
G01*
X5803900Y6261100D03*
G01*
X5803900Y5499100D03*
G01*
X3365500Y3530600D03*
G01*
X4127500Y3530600D03*
G01*
X2692400Y7137400D03*
G01*
X3454400Y7137400D03*
G01*
X2705100Y6654800D03*
G01*
X3467100Y6654800D03*
G01*
X5803900Y4724400D03*
G01*
X6565900Y4724400D03*
G01*
X1193800Y3086100D03*
G01*
X1955800Y3086100D03*
G01*
X2260600Y3111500D03*
G01*
X3022600Y3111500D03*
G01*
X5803900Y4279900D03*
G01*
X6565900Y4279900D03*
G01*
X5803900Y3759200D03*
G01*
X6565900Y3759200D03*
G01*
X5816600Y3263900D03*
G01*
X6578600Y3263900D03*
G01*
X5816600Y2794000D03*
G01*
X6578600Y2794000D03*
G01*
X4470400Y3517900D03*
G01*
X5232400Y3517900D03*
G01*
X4470400Y3136900D03*
G01*
X5232400Y3136900D03*
G01*
X3352800Y3124200D03*
G01*
X4114800Y3124200D03*
D27*
G01*
X6742811Y6184900D03*
D18*
G01*
X6527800Y6184900D03*
G01*
X6312788Y6184900D03*
D28*
G01*
X8978900Y6871182D03*
G01*
X9232925Y6870192D03*
D29*
G01*
X8724900Y6871208D03*
D30*
G01*
X4330496Y6998665D03*
D31*
G01*
X5194503Y6580682D03*
G01*
X4330496Y6580682D03*
D30*
G01*
X5194503Y6998715D03*
D32*
G01*
X3808729Y5869812D03*
G01*
X3971010Y5975578D03*
G01*
X4644567Y5354370D03*
D11*
G01*
X2660370Y3709746D03*
D32*
G01*
X3902583Y5787389D03*
D33*
G01*
X4461179Y5851093D03*
D32*
G01*
X4882641Y5298947D03*
G01*
X3898950Y3450183D03*
G01*
X4330700Y6223000D03*
G01*
X4521200Y6286500D03*
G01*
X5016500Y6286500D03*
M02*
